<svg width="610" height="560" viewBox="0 0 610 560" fill="none" xmlns="http://www.w3.org/2000/svg">
	<rect x="200" y="200" width="160" height="160" rx="40" fill="#2D3062"/>
	<path d="M256.993 279.536H247.561L246.049 284H239.605L248.749 258.728H255.877L265.021 284H258.505L256.993 279.536ZM255.409 274.784L252.277 265.532L249.181 274.784H255.409ZM290.664 266.864C290.664 268.328 290.328 269.672 289.656 270.896C288.984 272.096 287.952 273.068 286.56 273.812C285.168 274.556 283.44 274.928 281.376 274.928H277.56V284H271.404V258.728H281.376C283.392 258.728 285.096 259.076 286.488 259.772C287.88 260.468 288.924 261.428 289.62 262.652C290.316 263.876 290.664 265.28 290.664 266.864ZM280.908 270.032C282.084 270.032 282.96 269.756 283.536 269.204C284.112 268.652 284.4 267.872 284.4 266.864C284.4 265.856 284.112 265.076 283.536 264.524C282.96 263.972 282.084 263.696 280.908 263.696H277.56V270.032H280.908ZM312.949 284L307.801 276.26L303.265 284H296.281L304.381 271.148L296.101 258.728H303.265L308.341 266.36L312.805 258.728H319.789L311.761 271.472L320.113 284H312.949Z" fill="white"/>
	<path d="M248.884 300.324C248.884 300.996 248.722 301.626 248.398 302.214C248.086 302.802 247.588 303.276 246.904 303.636C246.232 303.996 245.38 304.176 244.348 304.176H242.242V309H239.722V296.436H244.348C245.32 296.436 246.148 296.604 246.832 296.94C247.516 297.276 248.026 297.738 248.362 298.326C248.71 298.914 248.884 299.58 248.884 300.324ZM244.24 302.142C244.936 302.142 245.452 301.986 245.788 301.674C246.124 301.35 246.292 300.9 246.292 300.324C246.292 299.1 245.608 298.488 244.24 298.488H242.242V302.142H244.24ZM254.273 300.576C254.597 300.048 255.017 299.634 255.533 299.334C256.061 299.034 256.661 298.884 257.333 298.884V301.53H256.667C255.875 301.53 255.275 301.716 254.867 302.088C254.471 302.46 254.273 303.108 254.273 304.032V309H251.753V299.028H254.273V300.576ZM264.538 309.162C263.578 309.162 262.714 308.952 261.946 308.532C261.178 308.1 260.572 307.494 260.128 306.714C259.696 305.934 259.48 305.034 259.48 304.014C259.48 302.994 259.702 302.094 260.146 301.314C260.602 300.534 261.22 299.934 262 299.514C262.78 299.082 263.65 298.866 264.61 298.866C265.57 298.866 266.44 299.082 267.22 299.514C268 299.934 268.612 300.534 269.056 301.314C269.512 302.094 269.74 302.994 269.74 304.014C269.74 305.034 269.506 305.934 269.038 306.714C268.582 307.494 267.958 308.1 267.166 308.532C266.386 308.952 265.51 309.162 264.538 309.162ZM264.538 306.966C264.994 306.966 265.42 306.858 265.816 306.642C266.224 306.414 266.548 306.078 266.788 305.634C267.028 305.19 267.148 304.65 267.148 304.014C267.148 303.066 266.896 302.34 266.392 301.836C265.9 301.32 265.294 301.062 264.574 301.062C263.854 301.062 263.248 301.32 262.756 301.836C262.276 302.34 262.036 303.066 262.036 304.014C262.036 304.962 262.27 305.694 262.738 306.21C263.218 306.714 263.818 306.966 264.538 306.966ZM275.603 301.098V305.922C275.603 306.258 275.681 306.504 275.837 306.66C276.005 306.804 276.281 306.876 276.665 306.876H277.835V309H276.251C274.127 309 273.065 307.968 273.065 305.904V301.098H271.877V299.028H273.065V296.562H275.603V299.028H277.835V301.098H275.603ZM285.155 309.162C284.195 309.162 283.331 308.952 282.563 308.532C281.795 308.1 281.189 307.494 280.745 306.714C280.313 305.934 280.097 305.034 280.097 304.014C280.097 302.994 280.319 302.094 280.763 301.314C281.219 300.534 281.837 299.934 282.617 299.514C283.397 299.082 284.267 298.866 285.227 298.866C286.187 298.866 287.057 299.082 287.837 299.514C288.617 299.934 289.229 300.534 289.673 301.314C290.129 302.094 290.357 302.994 290.357 304.014C290.357 305.034 290.123 305.934 289.655 306.714C289.199 307.494 288.575 308.1 287.783 308.532C287.003 308.952 286.127 309.162 285.155 309.162ZM285.155 306.966C285.611 306.966 286.037 306.858 286.433 306.642C286.841 306.414 287.165 306.078 287.405 305.634C287.645 305.19 287.765 304.65 287.765 304.014C287.765 303.066 287.513 302.34 287.009 301.836C286.517 301.32 285.911 301.062 285.191 301.062C284.471 301.062 283.865 301.32 283.373 301.836C282.893 302.34 282.653 303.066 282.653 304.014C282.653 304.962 282.887 305.694 283.355 306.21C283.835 306.714 284.435 306.966 285.155 306.966ZM292.638 304.014C292.638 302.982 292.848 302.082 293.268 301.314C293.688 300.534 294.27 299.934 295.014 299.514C295.758 299.082 296.61 298.866 297.57 298.866C298.806 298.866 299.826 299.178 300.63 299.802C301.446 300.414 301.992 301.278 302.268 302.394H299.55C299.406 301.962 299.16 301.626 298.812 301.386C298.476 301.134 298.056 301.008 297.552 301.008C296.832 301.008 296.262 301.272 295.842 301.8C295.422 302.316 295.212 303.054 295.212 304.014C295.212 304.962 295.422 305.7 295.842 306.228C296.262 306.744 296.832 307.002 297.552 307.002C298.572 307.002 299.238 306.546 299.55 305.634H302.268C301.992 306.714 301.446 307.572 300.63 308.208C299.814 308.844 298.794 309.162 297.57 309.162C296.61 309.162 295.758 308.952 295.014 308.532C294.27 308.1 293.688 307.5 293.268 306.732C292.848 305.952 292.638 305.046 292.638 304.014ZM309.622 309.162C308.662 309.162 307.798 308.952 307.03 308.532C306.262 308.1 305.656 307.494 305.212 306.714C304.78 305.934 304.564 305.034 304.564 304.014C304.564 302.994 304.786 302.094 305.23 301.314C305.686 300.534 306.304 299.934 307.084 299.514C307.864 299.082 308.734 298.866 309.694 298.866C310.654 298.866 311.524 299.082 312.304 299.514C313.084 299.934 313.696 300.534 314.14 301.314C314.596 302.094 314.824 302.994 314.824 304.014C314.824 305.034 314.59 305.934 314.122 306.714C313.666 307.494 313.042 308.1 312.25 308.532C311.47 308.952 310.594 309.162 309.622 309.162ZM309.622 306.966C310.078 306.966 310.504 306.858 310.9 306.642C311.308 306.414 311.632 306.078 311.872 305.634C312.112 305.19 312.232 304.65 312.232 304.014C312.232 303.066 311.98 302.34 311.476 301.836C310.984 301.32 310.378 301.062 309.658 301.062C308.938 301.062 308.332 301.32 307.84 301.836C307.36 302.34 307.12 303.066 307.12 304.014C307.12 304.962 307.354 305.694 307.822 306.21C308.302 306.714 308.902 306.966 309.622 306.966ZM320.272 295.68V309H317.752V295.68H320.272Z" fill="white"/>
	<path d="M360 154C360 157.314 357.314 160 354 160H240C217.909 160 200 142.091 200 120V40C200 17.9086 217.909 0 240 0H320C342.091 0 360 17.9086 360 40V154Z" fill="#159CAE"/>
	<path d="M227.896 68.4C227.643 67.9333 227.276 67.58 226.796 67.34C226.329 67.0867 225.776 66.96 225.136 66.96C224.029 66.96 223.143 67.3267 222.476 68.06C221.809 68.78 221.476 69.7467 221.476 70.96C221.476 72.2533 221.823 73.2667 222.516 74C223.223 74.72 224.189 75.08 225.416 75.08C226.256 75.08 226.963 74.8667 227.536 74.44C228.123 74.0133 228.549 73.4 228.816 72.6H224.476V70.08H231.916V73.26C231.663 74.1133 231.229 74.9067 230.616 75.64C230.016 76.3733 229.249 76.9667 228.316 77.42C227.383 77.8733 226.329 78.1 225.156 78.1C223.769 78.1 222.529 77.8 221.436 77.2C220.356 76.5867 219.509 75.74 218.896 74.66C218.296 73.58 217.996 72.3467 217.996 70.96C217.996 69.5733 218.296 68.34 218.896 67.26C219.509 66.1667 220.356 65.32 221.436 64.72C222.516 64.1067 223.749 63.8 225.136 63.8C226.816 63.8 228.229 64.2067 229.376 65.02C230.536 65.8333 231.303 66.96 231.676 68.4H227.896ZM238.89 78.16C237.797 78.16 236.81 77.9267 235.93 77.46C235.064 76.9933 234.377 76.3267 233.87 75.46C233.377 74.5933 233.13 73.58 233.13 72.42C233.13 71.2733 233.384 70.2667 233.89 69.4C234.397 68.52 235.09 67.8467 235.97 67.38C236.85 66.9133 237.837 66.68 238.93 66.68C240.024 66.68 241.01 66.9133 241.89 67.38C242.77 67.8467 243.464 68.52 243.97 69.4C244.477 70.2667 244.73 71.2733 244.73 72.42C244.73 73.5667 244.47 74.58 243.95 75.46C243.444 76.3267 242.744 76.9933 241.85 77.46C240.97 77.9267 239.984 78.16 238.89 78.16ZM238.89 75.2C239.544 75.2 240.097 74.96 240.55 74.48C241.017 74 241.25 73.3133 241.25 72.42C241.25 71.5267 241.024 70.84 240.57 70.36C240.13 69.88 239.584 69.64 238.93 69.64C238.264 69.64 237.71 69.88 237.27 70.36C236.83 70.8267 236.61 71.5133 236.61 72.42C236.61 73.3133 236.824 74 237.25 74.48C237.69 74.96 238.237 75.2 238.89 75.2ZM251.565 74.8L253.985 66.84H257.625L253.665 78H249.445L245.485 66.84H249.145L251.565 74.8ZM269.584 72.24C269.584 72.56 269.564 72.8933 269.524 73.24H261.784C261.838 73.9333 262.058 74.4667 262.444 74.84C262.844 75.2 263.331 75.38 263.904 75.38C264.758 75.38 265.351 75.02 265.684 74.3H269.324C269.138 75.0333 268.798 75.6933 268.304 76.28C267.824 76.8667 267.218 77.3267 266.484 77.66C265.751 77.9933 264.931 78.16 264.024 78.16C262.931 78.16 261.958 77.9267 261.104 77.46C260.251 76.9933 259.584 76.3267 259.104 75.46C258.624 74.5933 258.384 73.58 258.384 72.42C258.384 71.26 258.618 70.2467 259.084 69.38C259.564 68.5133 260.231 67.8467 261.084 67.38C261.938 66.9133 262.918 66.68 264.024 66.68C265.104 66.68 266.064 66.9067 266.904 67.36C267.744 67.8133 268.398 68.46 268.864 69.3C269.344 70.14 269.584 71.12 269.584 72.24ZM266.084 71.34C266.084 70.7533 265.884 70.2867 265.484 69.94C265.084 69.5933 264.584 69.42 263.984 69.42C263.411 69.42 262.924 69.5867 262.524 69.92C262.138 70.2533 261.898 70.7267 261.804 71.34H266.084ZM274.808 68.7C275.208 68.0867 275.708 67.6067 276.308 67.26C276.908 66.9 277.575 66.72 278.308 66.72V70.34H277.368C276.515 70.34 275.875 70.5267 275.448 70.9C275.022 71.26 274.808 71.9 274.808 72.82V78H271.388V66.84H274.808V68.7ZM286.743 66.72C288.05 66.72 289.09 67.1467 289.863 68C290.65 68.84 291.043 70 291.043 71.48V78H287.643V71.94C287.643 71.1933 287.45 70.6133 287.063 70.2C286.676 69.7867 286.156 69.58 285.503 69.58C284.85 69.58 284.33 69.7867 283.943 70.2C283.556 70.6133 283.363 71.1933 283.363 71.94V78H279.943V66.84H283.363V68.32C283.71 67.8267 284.176 67.44 284.763 67.16C285.35 66.8667 286.01 66.72 286.743 66.72ZM292.74 72.4C292.74 71.2533 292.953 70.2467 293.38 69.38C293.82 68.5133 294.413 67.8467 295.16 67.38C295.906 66.9133 296.74 66.68 297.66 66.68C298.446 66.68 299.133 66.84 299.72 67.16C300.32 67.48 300.78 67.9 301.1 68.42V66.84H304.52V78H301.1V76.42C300.766 76.94 300.3 77.36 299.7 77.68C299.113 78 298.426 78.16 297.64 78.16C296.733 78.16 295.906 77.9267 295.16 77.46C294.413 76.98 293.82 76.3067 293.38 75.44C292.953 74.56 292.74 73.5467 292.74 72.4ZM301.1 72.42C301.1 71.5667 300.86 70.8933 300.38 70.4C299.913 69.9067 299.34 69.66 298.66 69.66C297.98 69.66 297.4 69.9067 296.92 70.4C296.453 70.88 296.22 71.5467 296.22 72.4C296.22 73.2533 296.453 73.9333 296.92 74.44C297.4 74.9333 297.98 75.18 298.66 75.18C299.34 75.18 299.913 74.9333 300.38 74.44C300.86 73.9467 301.1 73.2733 301.1 72.42ZM313.794 66.72C315.101 66.72 316.141 67.1467 316.914 68C317.701 68.84 318.094 70 318.094 71.48V78H314.694V71.94C314.694 71.1933 314.501 70.6133 314.114 70.2C313.727 69.7867 313.207 69.58 312.554 69.58C311.901 69.58 311.381 69.7867 310.994 70.2C310.607 70.6133 310.414 71.1933 310.414 71.94V78H306.994V66.84H310.414V68.32C310.761 67.8267 311.227 67.44 311.814 67.16C312.401 66.8667 313.061 66.72 313.794 66.72ZM319.79 72.42C319.79 71.26 320.024 70.2467 320.49 69.38C320.97 68.5133 321.63 67.8467 322.47 67.38C323.324 66.9133 324.297 66.68 325.39 66.68C326.79 66.68 327.957 67.0467 328.89 67.78C329.837 68.5133 330.457 69.5467 330.75 70.88H327.11C326.804 70.0267 326.21 69.6 325.33 69.6C324.704 69.6 324.204 69.8467 323.83 70.34C323.457 70.82 323.27 71.5133 323.27 72.42C323.27 73.3267 323.457 74.0267 323.83 74.52C324.204 75 324.704 75.24 325.33 75.24C326.21 75.24 326.804 74.8133 327.11 73.96H330.75C330.457 75.2667 329.837 76.2933 328.89 77.04C327.944 77.7867 326.777 78.16 325.39 78.16C324.297 78.16 323.324 77.9267 322.47 77.46C321.63 76.9933 320.97 76.3267 320.49 75.46C320.024 74.5933 319.79 73.58 319.79 72.42ZM343.1 72.24C343.1 72.56 343.08 72.8933 343.04 73.24H335.3C335.353 73.9333 335.573 74.4667 335.96 74.84C336.36 75.2 336.847 75.38 337.42 75.38C338.273 75.38 338.867 75.02 339.2 74.3H342.84C342.653 75.0333 342.313 75.6933 341.82 76.28C341.34 76.8667 340.733 77.3267 340 77.66C339.267 77.9933 338.447 78.16 337.54 78.16C336.447 78.16 335.473 77.9267 334.62 77.46C333.767 76.9933 333.1 76.3267 332.62 75.46C332.14 74.5933 331.9 73.58 331.9 72.42C331.9 71.26 332.133 70.2467 332.6 69.38C333.08 68.5133 333.747 67.8467 334.6 67.38C335.453 66.9133 336.433 66.68 337.54 66.68C338.62 66.68 339.58 66.9067 340.42 67.36C341.26 67.8133 341.913 68.46 342.38 69.3C342.86 70.14 343.1 71.12 343.1 72.24ZM339.6 71.34C339.6 70.7533 339.4 70.2867 339 69.94C338.6 69.5933 338.1 69.42 337.5 69.42C336.927 69.42 336.44 69.5867 336.04 69.92C335.653 70.2533 335.413 70.7267 335.32 71.34H339.6Z" fill="white"/>
	<path d="M246.594 102.4C246.594 101.301 246.839 100.32 247.33 99.456C247.831 98.5813 248.509 97.904 249.362 97.424C250.226 96.9333 251.191 96.688 252.258 96.688C253.506 96.688 254.599 97.008 255.538 97.648C256.477 98.288 257.133 99.1733 257.506 100.304H254.93C254.674 99.7707 254.311 99.3707 253.842 99.104C253.383 98.8373 252.85 98.704 252.242 98.704C251.591 98.704 251.01 98.8587 250.498 99.168C249.997 99.4667 249.602 99.8933 249.314 100.448C249.037 101.003 248.898 101.653 248.898 102.4C248.898 103.136 249.037 103.787 249.314 104.352C249.602 104.907 249.997 105.339 250.498 105.648C251.01 105.947 251.591 106.096 252.242 106.096C252.85 106.096 253.383 105.963 253.842 105.696C254.311 105.419 254.674 105.013 254.93 104.48H257.506C257.133 105.621 256.477 106.512 255.538 107.152C254.61 107.781 253.517 108.096 252.258 108.096C251.191 108.096 250.226 107.856 249.362 107.376C248.509 106.885 247.831 106.208 247.33 105.344C246.839 104.48 246.594 103.499 246.594 102.4ZM264.315 108.144C263.462 108.144 262.694 107.957 262.011 107.584C261.329 107.2 260.79 106.661 260.395 105.968C260.011 105.275 259.819 104.475 259.819 103.568C259.819 102.661 260.017 101.861 260.411 101.168C260.817 100.475 261.366 99.9413 262.059 99.568C262.753 99.184 263.526 98.992 264.379 98.992C265.233 98.992 266.006 99.184 266.699 99.568C267.393 99.9413 267.937 100.475 268.331 101.168C268.737 101.861 268.939 102.661 268.939 103.568C268.939 104.475 268.731 105.275 268.315 105.968C267.91 106.661 267.355 107.2 266.651 107.584C265.958 107.957 265.179 108.144 264.315 108.144ZM264.315 106.192C264.721 106.192 265.099 106.096 265.451 105.904C265.814 105.701 266.102 105.403 266.315 105.008C266.529 104.613 266.635 104.133 266.635 103.568C266.635 102.725 266.411 102.08 265.963 101.632C265.526 101.173 264.987 100.944 264.347 100.944C263.707 100.944 263.169 101.173 262.731 101.632C262.305 102.08 262.091 102.725 262.091 103.568C262.091 104.411 262.299 105.061 262.715 105.52C263.142 105.968 263.675 106.192 264.315 106.192ZM279.91 99.136V108H277.654V106.88C277.366 107.264 276.988 107.568 276.518 107.792C276.06 108.005 275.558 108.112 275.014 108.112C274.321 108.112 273.708 107.968 273.174 107.68C272.641 107.381 272.22 106.949 271.91 106.384C271.612 105.808 271.462 105.125 271.462 104.336V99.136H273.702V104.016C273.702 104.72 273.878 105.264 274.23 105.648C274.582 106.021 275.062 106.208 275.67 106.208C276.289 106.208 276.774 106.021 277.126 105.648C277.478 105.264 277.654 104.72 277.654 104.016V99.136H279.91ZM287.993 99.008C289.049 99.008 289.902 99.344 290.553 100.016C291.203 100.677 291.529 101.605 291.529 102.8V108H289.289V103.104C289.289 102.4 289.113 101.861 288.761 101.488C288.409 101.104 287.929 100.912 287.321 100.912C286.702 100.912 286.211 101.104 285.849 101.488C285.497 101.861 285.321 102.4 285.321 103.104V108H283.081V99.136H285.321V100.24C285.619 99.856 285.998 99.5573 286.457 99.344C286.926 99.12 287.438 99.008 287.993 99.008ZM294.043 103.568C294.043 102.651 294.229 101.851 294.603 101.168C294.976 100.475 295.493 99.9413 296.155 99.568C296.816 99.184 297.573 98.992 298.427 98.992C299.525 98.992 300.432 99.2693 301.147 99.824C301.872 100.368 302.357 101.136 302.603 102.128H300.187C300.059 101.744 299.84 101.445 299.531 101.232C299.232 101.008 298.859 100.896 298.411 100.896C297.771 100.896 297.264 101.131 296.891 101.6C296.517 102.059 296.331 102.715 296.331 103.568C296.331 104.411 296.517 105.067 296.891 105.536C297.264 105.995 297.771 106.224 298.411 106.224C299.317 106.224 299.909 105.819 300.187 105.008H302.603C302.357 105.968 301.872 106.731 301.147 107.296C300.421 107.861 299.515 108.144 298.427 108.144C297.573 108.144 296.816 107.957 296.155 107.584C295.493 107.2 294.976 106.667 294.603 105.984C294.229 105.291 294.043 104.485 294.043 103.568ZM306.34 98.08C305.945 98.08 305.614 97.9573 305.348 97.712C305.092 97.456 304.964 97.1413 304.964 96.768C304.964 96.3947 305.092 96.0853 305.348 95.84C305.614 95.584 305.945 95.456 306.34 95.456C306.734 95.456 307.06 95.584 307.316 95.84C307.582 96.0853 307.716 96.3947 307.716 96.768C307.716 97.1413 307.582 97.456 307.316 97.712C307.06 97.9573 306.734 98.08 306.34 98.08ZM307.444 99.136V108H305.204V99.136H307.444ZM312.857 96.16V108H310.617V96.16H312.857Z" fill="white"/>
	<path d="M160 154C160 157.314 157.314 160 154 160H40C17.9086 160 0 142.091 0 120V40C0 17.9086 17.9086 0 40 0H120C142.091 0 160 17.9086 160 40V154Z" fill="#159CAE"/>
	<path d="M69.2183 75.52H63.9783L63.1383 78H59.5583L64.6383 63.96H68.5983L73.6783 78H70.0583L69.2183 75.52ZM68.3383 72.88L66.5983 67.74L64.8783 72.88H68.3383ZM85.9244 68.48C85.9244 69.2933 85.7377 70.04 85.3644 70.72C84.991 71.3867 84.4177 71.9267 83.6444 72.34C82.871 72.7533 81.911 72.96 80.7644 72.96H78.6444V78H75.2244V63.96H80.7644C81.8844 63.96 82.831 64.1533 83.6044 64.54C84.3777 64.9267 84.9577 65.46 85.3444 66.14C85.731 66.82 85.9244 67.6 85.9244 68.48ZM80.5044 70.24C81.1577 70.24 81.6444 70.0867 81.9644 69.78C82.2844 69.4733 82.4444 69.04 82.4444 68.48C82.4444 67.92 82.2844 67.4867 81.9644 67.18C81.6444 66.8733 81.1577 66.72 80.5044 66.72H78.6444V70.24H80.5044ZM96.3048 78L93.4448 73.7L90.9248 78H87.0448L91.5448 70.86L86.9448 63.96H90.9248L93.7448 68.2L96.2248 63.96H100.105L95.6448 71.04L100.285 78H96.3048Z" fill="white"/>
	<path d="M56.4724 96.832V108H54.2324V103.248H49.4484V108H47.2084V96.832H49.4484V101.424H54.2324V96.832H56.4724ZM63.5731 108.144C62.7198 108.144 61.9518 107.957 61.2691 107.584C60.5865 107.2 60.0478 106.661 59.6531 105.968C59.2691 105.275 59.0771 104.475 59.0771 103.568C59.0771 102.661 59.2745 101.861 59.6691 101.168C60.0745 100.475 60.6238 99.9413 61.3171 99.568C62.0105 99.184 62.7838 98.992 63.6371 98.992C64.4905 98.992 65.2638 99.184 65.9571 99.568C66.6505 99.9413 67.1945 100.475 67.5891 101.168C67.9945 101.861 68.1971 102.661 68.1971 103.568C68.1971 104.475 67.9891 105.275 67.5731 105.968C67.1678 106.661 66.6131 107.2 65.9091 107.584C65.2158 107.957 64.4371 108.144 63.5731 108.144ZM63.5731 106.192C63.9785 106.192 64.3571 106.096 64.7091 105.904C65.0718 105.701 65.3598 105.403 65.5731 105.008C65.7865 104.613 65.8931 104.133 65.8931 103.568C65.8931 102.725 65.6691 102.08 65.2211 101.632C64.7838 101.173 64.2451 100.944 63.6051 100.944C62.9651 100.944 62.4265 101.173 61.9891 101.632C61.5625 102.08 61.3491 102.725 61.3491 103.568C61.3491 104.411 61.5571 105.061 61.9731 105.52C62.3998 105.968 62.9331 106.192 63.5731 106.192ZM73.0402 96.16V108H70.8002V96.16H73.0402ZM75.6374 103.536C75.6374 102.64 75.8134 101.845 76.1654 101.152C76.528 100.459 77.0187 99.9253 77.6374 99.552C78.256 99.1787 78.944 98.992 79.7014 98.992C80.2774 98.992 80.8267 99.12 81.3494 99.376C81.872 99.6213 82.288 99.952 82.5974 100.368V96.16H84.8694V108H82.5974V106.688C82.32 107.125 81.9307 107.477 81.4294 107.744C80.928 108.011 80.3467 108.144 79.6854 108.144C78.9387 108.144 78.256 107.952 77.6374 107.568C77.0187 107.184 76.528 106.645 76.1654 105.952C75.8134 105.248 75.6374 104.443 75.6374 103.536ZM82.6134 103.568C82.6134 103.024 82.5067 102.56 82.2934 102.176C82.08 101.781 81.792 101.483 81.4294 101.28C81.0667 101.067 80.6774 100.96 80.2614 100.96C79.8454 100.96 79.4614 101.061 79.1094 101.264C78.7574 101.467 78.4694 101.765 78.2454 102.16C78.032 102.544 77.9254 103.003 77.9254 103.536C77.9254 104.069 78.032 104.539 78.2454 104.944C78.4694 105.339 78.7574 105.643 79.1094 105.856C79.472 106.069 79.856 106.176 80.2614 106.176C80.6774 106.176 81.0667 106.075 81.4294 105.872C81.792 105.659 82.08 105.36 82.2934 104.976C82.5067 104.581 82.6134 104.112 82.6134 103.568ZM96.2571 103.376C96.2571 103.696 96.2358 103.984 96.1931 104.24H89.7131C89.7665 104.88 89.9905 105.381 90.3851 105.744C90.7798 106.107 91.2651 106.288 91.8411 106.288C92.6731 106.288 93.2651 105.931 93.6171 105.216H96.0331C95.7771 106.069 95.2865 106.773 94.5611 107.328C93.8358 107.872 92.9451 108.144 91.8891 108.144C91.0358 108.144 90.2678 107.957 89.5851 107.584C88.9131 107.2 88.3851 106.661 88.0011 105.968C87.6278 105.275 87.4411 104.475 87.4411 103.568C87.4411 102.651 87.6278 101.845 88.0011 101.152C88.3745 100.459 88.8971 99.9253 89.5691 99.552C90.2411 99.1787 91.0145 98.992 91.8891 98.992C92.7318 98.992 93.4838 99.1733 94.1451 99.536C94.8171 99.8987 95.3345 100.416 95.6971 101.088C96.0705 101.749 96.2571 102.512 96.2571 103.376ZM93.9371 102.736C93.9265 102.16 93.7185 101.701 93.3131 101.36C92.9078 101.008 92.4118 100.832 91.8251 100.832C91.2705 100.832 90.8011 101.003 90.4171 101.344C90.0438 101.675 89.8145 102.139 89.7291 102.736H93.9371ZM101.092 100.512C101.38 100.043 101.753 99.6747 102.212 99.408C102.681 99.1413 103.215 99.008 103.812 99.008V101.36H103.22C102.516 101.36 101.983 101.525 101.62 101.856C101.268 102.187 101.092 102.763 101.092 103.584V108H98.8521V99.136H101.092V100.512ZM109.673 108.144C108.948 108.144 108.297 108.016 107.721 107.76C107.145 107.493 106.686 107.136 106.345 106.688C106.014 106.24 105.833 105.744 105.801 105.2H108.057C108.1 105.541 108.265 105.824 108.553 106.048C108.852 106.272 109.22 106.384 109.657 106.384C110.084 106.384 110.414 106.299 110.649 106.128C110.894 105.957 111.017 105.739 111.017 105.472C111.017 105.184 110.868 104.971 110.569 104.832C110.281 104.683 109.817 104.523 109.177 104.352C108.516 104.192 107.972 104.027 107.545 103.856C107.129 103.685 106.766 103.424 106.457 103.072C106.158 102.72 106.009 102.245 106.009 101.648C106.009 101.157 106.148 100.709 106.425 100.304C106.713 99.8987 107.118 99.5787 107.641 99.344C108.174 99.1093 108.798 98.992 109.513 98.992C110.569 98.992 111.412 99.2587 112.041 99.792C112.67 100.315 113.017 101.024 113.081 101.92H110.937C110.905 101.568 110.756 101.291 110.489 101.088C110.233 100.875 109.886 100.768 109.449 100.768C109.044 100.768 108.729 100.843 108.505 100.992C108.292 101.141 108.185 101.349 108.185 101.616C108.185 101.915 108.334 102.144 108.633 102.304C108.932 102.453 109.396 102.608 110.025 102.768C110.665 102.928 111.193 103.093 111.609 103.264C112.025 103.435 112.382 103.701 112.681 104.064C112.99 104.416 113.15 104.885 113.161 105.472C113.161 105.984 113.017 106.443 112.729 106.848C112.452 107.253 112.046 107.573 111.513 107.808C110.99 108.032 110.377 108.144 109.673 108.144Z" fill="white"/>
	<path d="M610 120C610 142.091 592.091 160 570 160H456C452.686 160 450 157.314 450 154V40C450 17.9086 467.909 0 490 0H570C592.091 0 610 17.9086 610 40V120Z" fill="#2EAE69"/>
	<path d="M501.425 75.52H496.185L495.345 78H491.765L496.845 63.96H500.805L505.885 78H502.265L501.425 75.52ZM500.545 72.88L498.805 67.74L497.085 72.88H500.545ZM518.451 66.84V78H515.031V76.48C514.685 76.9733 514.211 77.3733 513.611 77.68C513.025 77.9733 512.371 78.12 511.651 78.12C510.798 78.12 510.045 77.9333 509.391 77.56C508.738 77.1733 508.231 76.62 507.871 75.9C507.511 75.18 507.331 74.3333 507.331 73.36V66.84H510.731V72.9C510.731 73.6467 510.925 74.2267 511.311 74.64C511.698 75.0533 512.218 75.26 512.871 75.26C513.538 75.26 514.065 75.0533 514.451 74.64C514.838 74.2267 515.031 73.6467 515.031 72.9V66.84H518.451ZM520.228 72.4C520.228 71.2533 520.441 70.2467 520.868 69.38C521.308 68.5133 521.901 67.8467 522.648 67.38C523.395 66.9133 524.228 66.68 525.148 66.68C525.881 66.68 526.548 66.8333 527.148 67.14C527.761 67.4467 528.241 67.86 528.588 68.38V63.2H532.008V78H528.588V76.4C528.268 76.9333 527.808 77.36 527.208 77.68C526.621 78 525.935 78.16 525.148 78.16C524.228 78.16 523.395 77.9267 522.648 77.46C521.901 76.98 521.308 76.3067 520.868 75.44C520.441 74.56 520.228 73.5467 520.228 72.4ZM528.588 72.42C528.588 71.5667 528.348 70.8933 527.868 70.4C527.401 69.9067 526.828 69.66 526.148 69.66C525.468 69.66 524.888 69.9067 524.408 70.4C523.941 70.88 523.708 71.5467 523.708 72.4C523.708 73.2533 523.941 73.9333 524.408 74.44C524.888 74.9333 525.468 75.18 526.148 75.18C526.828 75.18 527.401 74.9333 527.868 74.44C528.348 73.9467 528.588 73.2733 528.588 72.42ZM536.202 65.68C535.602 65.68 535.109 65.5067 534.722 65.16C534.349 64.8 534.162 64.36 534.162 63.84C534.162 63.3067 534.349 62.8667 534.722 62.52C535.109 62.16 535.602 61.98 536.202 61.98C536.789 61.98 537.269 62.16 537.642 62.52C538.029 62.8667 538.222 63.3067 538.222 63.84C538.222 64.36 538.029 64.8 537.642 65.16C537.269 65.5067 536.789 65.68 536.202 65.68ZM537.902 66.84V78H534.482V66.84H537.902ZM546.601 75.1V78H544.861C543.621 78 542.654 77.7 541.961 77.1C541.267 76.4867 540.921 75.4933 540.921 74.12V69.68H539.561V66.84H540.921V64.12H544.341V66.84H546.581V69.68H544.341V74.16C544.341 74.4933 544.421 74.7333 544.581 74.88C544.741 75.0267 545.007 75.1 545.381 75.1H546.601ZM553.586 78.16C552.492 78.16 551.506 77.9267 550.626 77.46C549.759 76.9933 549.072 76.3267 548.566 75.46C548.072 74.5933 547.826 73.58 547.826 72.42C547.826 71.2733 548.079 70.2667 548.586 69.4C549.092 68.52 549.786 67.8467 550.666 67.38C551.546 66.9133 552.532 66.68 553.626 66.68C554.719 66.68 555.706 66.9133 556.586 67.38C557.466 67.8467 558.159 68.52 558.666 69.4C559.172 70.2667 559.426 71.2733 559.426 72.42C559.426 73.5667 559.166 74.58 558.646 75.46C558.139 76.3267 557.439 76.9933 556.546 77.46C555.666 77.9267 554.679 78.16 553.586 78.16ZM553.586 75.2C554.239 75.2 554.792 74.96 555.246 74.48C555.712 74 555.946 73.3133 555.946 72.42C555.946 71.5267 555.719 70.84 555.266 70.36C554.826 69.88 554.279 69.64 553.626 69.64C552.959 69.64 552.406 69.88 551.966 70.36C551.526 70.8267 551.306 71.5133 551.306 72.42C551.306 73.3133 551.519 74 551.946 74.48C552.386 74.96 552.932 75.2 553.586 75.2ZM564.66 68.7C565.06 68.0867 565.56 67.6067 566.16 67.26C566.76 66.9 567.427 66.72 568.16 66.72V70.34H567.22C566.367 70.34 565.727 70.5267 565.3 70.9C564.873 71.26 564.66 71.9 564.66 72.82V78H561.24V66.84H564.66V68.7Z" fill="white"/>
	<path d="M513.033 108H510.793L505.721 100.336V108H503.481V96.816H505.721L510.793 104.496V96.816H513.033V108ZM520.143 108.144C519.289 108.144 518.521 107.957 517.839 107.584C517.156 107.2 516.617 106.661 516.222 105.968C515.838 105.275 515.646 104.475 515.646 103.568C515.646 102.661 515.844 101.861 516.238 101.168C516.644 100.475 517.193 99.9413 517.887 99.568C518.58 99.184 519.353 98.992 520.207 98.992C521.06 98.992 521.833 99.184 522.527 99.568C523.22 99.9413 523.764 100.475 524.159 101.168C524.564 101.861 524.767 102.661 524.767 103.568C524.767 104.475 524.559 105.275 524.142 105.968C523.737 106.661 523.183 107.2 522.479 107.584C521.785 107.957 521.007 108.144 520.143 108.144ZM520.143 106.192C520.548 106.192 520.927 106.096 521.279 105.904C521.641 105.701 521.929 105.403 522.143 105.008C522.356 104.613 522.463 104.133 522.463 103.568C522.463 102.725 522.239 102.08 521.791 101.632C521.353 101.173 520.815 100.944 520.174 100.944C519.534 100.944 518.996 101.173 518.559 101.632C518.132 102.08 517.919 102.725 517.919 103.568C517.919 104.411 518.127 105.061 518.543 105.52C518.969 105.968 519.503 106.192 520.143 106.192ZM526.794 103.536C526.794 102.64 526.97 101.845 527.322 101.152C527.684 100.459 528.175 99.9253 528.794 99.552C529.412 99.1787 530.1 98.992 530.858 98.992C531.434 98.992 531.983 99.12 532.506 99.376C533.028 99.6213 533.444 99.952 533.754 100.368V96.16H536.026V108H533.754V106.688C533.476 107.125 533.087 107.477 532.586 107.744C532.084 108.011 531.503 108.144 530.842 108.144C530.095 108.144 529.412 107.952 528.794 107.568C528.175 107.184 527.684 106.645 527.322 105.952C526.97 105.248 526.794 104.443 526.794 103.536ZM533.77 103.568C533.77 103.024 533.663 102.56 533.45 102.176C533.236 101.781 532.948 101.483 532.586 101.28C532.223 101.067 531.834 100.96 531.418 100.96C531.002 100.96 530.618 101.061 530.266 101.264C529.914 101.467 529.626 101.765 529.402 102.16C529.188 102.544 529.082 103.003 529.082 103.536C529.082 104.069 529.188 104.539 529.402 104.944C529.626 105.339 529.914 105.643 530.266 105.856C530.628 106.069 531.012 106.176 531.418 106.176C531.834 106.176 532.223 106.075 532.586 105.872C532.948 105.659 533.236 105.36 533.45 104.976C533.663 104.581 533.77 104.112 533.77 103.568ZM547.413 103.376C547.413 103.696 547.392 103.984 547.349 104.24H540.869C540.923 104.88 541.147 105.381 541.541 105.744C541.936 106.107 542.421 106.288 542.997 106.288C543.829 106.288 544.421 105.931 544.773 105.216H547.189C546.933 106.069 546.443 106.773 545.717 107.328C544.992 107.872 544.101 108.144 543.045 108.144C542.192 108.144 541.424 107.957 540.741 107.584C540.069 107.2 539.541 106.661 539.157 105.968C538.784 105.275 538.597 104.475 538.597 103.568C538.597 102.651 538.784 101.845 539.157 101.152C539.531 100.459 540.053 99.9253 540.725 99.552C541.397 99.1787 542.171 98.992 543.045 98.992C543.888 98.992 544.64 99.1733 545.301 99.536C545.973 99.8987 546.491 100.416 546.853 101.088C547.227 101.749 547.413 102.512 547.413 103.376ZM545.093 102.736C545.083 102.16 544.875 101.701 544.469 101.36C544.064 101.008 543.568 100.832 542.981 100.832C542.427 100.832 541.957 101.003 541.573 101.344C541.2 101.675 540.971 102.139 540.885 102.736H545.093ZM553.4 108.144C552.675 108.144 552.024 108.016 551.448 107.76C550.872 107.493 550.414 107.136 550.072 106.688C549.742 106.24 549.56 105.744 549.528 105.2H551.784C551.827 105.541 551.992 105.824 552.28 106.048C552.579 106.272 552.947 106.384 553.384 106.384C553.811 106.384 554.142 106.299 554.376 106.128C554.622 105.957 554.744 105.739 554.744 105.472C554.744 105.184 554.595 104.971 554.296 104.832C554.008 104.683 553.544 104.523 552.904 104.352C552.243 104.192 551.699 104.027 551.272 103.856C550.856 103.685 550.494 103.424 550.184 103.072C549.886 102.72 549.736 102.245 549.736 101.648C549.736 101.157 549.875 100.709 550.152 100.304C550.44 99.8987 550.846 99.5787 551.368 99.344C551.902 99.1093 552.526 98.992 553.24 98.992C554.296 98.992 555.139 99.2587 555.768 99.792C556.398 100.315 556.744 101.024 556.808 101.92H554.664C554.632 101.568 554.483 101.291 554.216 101.088C553.96 100.875 553.614 100.768 553.176 100.768C552.771 100.768 552.456 100.843 552.232 100.992C552.019 101.141 551.912 101.349 551.912 101.616C551.912 101.915 552.062 102.144 552.36 102.304C552.659 102.453 553.123 102.608 553.752 102.768C554.392 102.928 554.92 103.093 555.336 103.264C555.752 103.435 556.11 103.701 556.408 104.064C556.718 104.416 556.878 104.885 556.888 105.472C556.888 105.984 556.744 106.443 556.456 106.848C556.179 107.253 555.774 107.573 555.24 107.808C554.718 108.032 554.104 108.144 553.4 108.144Z" fill="white"/>
	<path d="M610 320C610 342.091 592.091 360 570 360H456C452.686 360 450 357.314 450 354V240C450 217.909 467.909 200 490 200H570C592.091 200 610 217.909 610 240V320Z" fill="#2E3BAE"/>
	<path d="M491.633 263.96V266.7H487.913V278H484.493V266.7H480.773V263.96H491.633ZM498.429 278.16C497.336 278.16 496.349 277.927 495.469 277.46C494.603 276.993 493.916 276.327 493.409 275.46C492.916 274.593 492.669 273.58 492.669 272.42C492.669 271.273 492.923 270.267 493.429 269.4C493.936 268.52 494.629 267.847 495.509 267.38C496.389 266.913 497.376 266.68 498.469 266.68C499.563 266.68 500.549 266.913 501.429 267.38C502.309 267.847 503.003 268.52 503.509 269.4C504.016 270.267 504.269 271.273 504.269 272.42C504.269 273.567 504.009 274.58 503.489 275.46C502.983 276.327 502.283 276.993 501.389 277.46C500.509 277.927 499.523 278.16 498.429 278.16ZM498.429 275.2C499.083 275.2 499.636 274.96 500.089 274.48C500.556 274 500.789 273.313 500.789 272.42C500.789 271.527 500.563 270.84 500.109 270.36C499.669 269.88 499.123 269.64 498.469 269.64C497.803 269.64 497.249 269.88 496.809 270.36C496.369 270.827 496.149 271.513 496.149 272.42C496.149 273.313 496.363 274 496.789 274.48C497.229 274.96 497.776 275.2 498.429 275.2ZM512.904 278L509.504 273.32V278H506.084V263.2H509.504V271.38L512.884 266.84H517.104L512.464 272.44L517.144 278H512.904ZM528.967 272.24C528.967 272.56 528.947 272.893 528.907 273.24H521.167C521.22 273.933 521.44 274.467 521.827 274.84C522.227 275.2 522.714 275.38 523.287 275.38C524.14 275.38 524.734 275.02 525.067 274.3H528.707C528.52 275.033 528.18 275.693 527.687 276.28C527.207 276.867 526.6 277.327 525.867 277.66C525.134 277.993 524.314 278.16 523.407 278.16C522.314 278.16 521.34 277.927 520.487 277.46C519.634 276.993 518.967 276.327 518.487 275.46C518.007 274.593 517.767 273.58 517.767 272.42C517.767 271.26 518 270.247 518.467 269.38C518.947 268.513 519.614 267.847 520.467 267.38C521.32 266.913 522.3 266.68 523.407 266.68C524.487 266.68 525.447 266.907 526.287 267.36C527.127 267.813 527.78 268.46 528.247 269.3C528.727 270.14 528.967 271.12 528.967 272.24ZM525.467 271.34C525.467 270.753 525.267 270.287 524.867 269.94C524.467 269.593 523.967 269.42 523.367 269.42C522.794 269.42 522.307 269.587 521.907 269.92C521.52 270.253 521.28 270.727 521.187 271.34H525.467ZM537.571 266.72C538.878 266.72 539.918 267.147 540.691 268C541.478 268.84 541.871 270 541.871 271.48V278H538.471V271.94C538.471 271.193 538.278 270.613 537.891 270.2C537.505 269.787 536.985 269.58 536.331 269.58C535.678 269.58 535.158 269.787 534.771 270.2C534.385 270.613 534.191 271.193 534.191 271.94V278H530.771V266.84H534.191V268.32C534.538 267.827 535.005 267.44 535.591 267.16C536.178 266.867 536.838 266.72 537.571 266.72ZM545.968 265.68C545.368 265.68 544.874 265.507 544.488 265.16C544.114 264.8 543.928 264.36 543.928 263.84C543.928 263.307 544.114 262.867 544.488 262.52C544.874 262.16 545.368 261.98 545.968 261.98C546.554 261.98 547.034 262.16 547.408 262.52C547.794 262.867 547.988 263.307 547.988 263.84C547.988 264.36 547.794 264.8 547.408 265.16C547.034 265.507 546.554 265.68 545.968 265.68ZM547.668 266.84V278H544.248V266.84H547.668ZM553.346 275.18H558.186V278H549.526V275.28L554.166 269.66H549.566V266.84H558.086V269.56L553.346 275.18ZM570.588 272.24C570.588 272.56 570.568 272.893 570.528 273.24H562.788C562.841 273.933 563.061 274.467 563.448 274.84C563.848 275.2 564.335 275.38 564.908 275.38C565.761 275.38 566.355 275.02 566.688 274.3H570.328C570.141 275.033 569.801 275.693 569.308 276.28C568.828 276.867 568.221 277.327 567.488 277.66C566.755 277.993 565.935 278.16 565.028 278.16C563.935 278.16 562.961 277.927 562.108 277.46C561.255 276.993 560.588 276.327 560.108 275.46C559.628 274.593 559.388 273.58 559.388 272.42C559.388 271.26 559.621 270.247 560.088 269.38C560.568 268.513 561.235 267.847 562.088 267.38C562.941 266.913 563.921 266.68 565.028 266.68C566.108 266.68 567.068 266.907 567.908 267.36C568.748 267.813 569.401 268.46 569.868 269.3C570.348 270.14 570.588 271.12 570.588 272.24ZM567.088 271.34C567.088 270.753 566.888 270.287 566.488 269.94C566.088 269.593 565.588 269.42 564.988 269.42C564.415 269.42 563.928 269.587 563.528 269.92C563.141 270.253 562.901 270.727 562.808 271.34H567.088ZM575.812 268.7C576.212 268.087 576.712 267.607 577.312 267.26C577.912 266.9 578.579 266.72 579.312 266.72V270.34H578.372C577.519 270.34 576.879 270.527 576.452 270.9C576.026 271.26 575.812 271.9 575.812 272.82V278H572.392V266.84H575.812V268.7Z" fill="white"/>
	<path d="M496.455 300.288C496.455 300.885 496.311 301.445 496.023 301.968C495.746 302.491 495.303 302.912 494.695 303.232C494.098 303.552 493.34 303.712 492.423 303.712H490.551V308H488.311V296.832H492.423C493.287 296.832 494.023 296.981 494.631 297.28C495.239 297.579 495.692 297.989 495.991 298.512C496.3 299.035 496.455 299.627 496.455 300.288ZM492.327 301.904C492.946 301.904 493.404 301.765 493.703 301.488C494.002 301.2 494.151 300.8 494.151 300.288C494.151 299.2 493.543 298.656 492.327 298.656H490.551V301.904H492.327ZM501.245 296.16V308H499.005V296.16H501.245ZM503.842 303.536C503.842 302.64 504.018 301.845 504.37 301.152C504.733 300.459 505.218 299.925 505.826 299.552C506.445 299.179 507.133 298.992 507.89 298.992C508.552 298.992 509.128 299.125 509.618 299.392C510.12 299.659 510.52 299.995 510.818 300.4V299.136H513.074V308H510.818V306.704C510.53 307.12 510.13 307.467 509.618 307.744C509.117 308.011 508.536 308.144 507.874 308.144C507.128 308.144 506.445 307.952 505.826 307.568C505.218 307.184 504.733 306.645 504.37 305.952C504.018 305.248 503.842 304.443 503.842 303.536ZM510.818 303.568C510.818 303.024 510.712 302.56 510.498 302.176C510.285 301.781 509.997 301.483 509.634 301.28C509.272 301.067 508.882 300.96 508.466 300.96C508.05 300.96 507.666 301.061 507.314 301.264C506.962 301.467 506.674 301.765 506.45 302.16C506.237 302.544 506.13 303.003 506.13 303.536C506.13 304.069 506.237 304.539 506.45 304.944C506.674 305.339 506.962 305.643 507.314 305.856C507.677 306.069 508.061 306.176 508.466 306.176C508.882 306.176 509.272 306.075 509.634 305.872C509.997 305.659 510.285 305.36 510.498 304.976C510.712 304.581 510.818 304.112 510.818 303.568ZM518.83 300.976V305.264C518.83 305.563 518.899 305.781 519.038 305.92C519.187 306.048 519.433 306.112 519.774 306.112H520.814V308H519.406C517.518 308 516.574 307.083 516.574 305.248V300.976H515.518V299.136H516.574V296.944H518.83V299.136H520.814V300.976H518.83ZM527.449 300.976H525.897V308H523.625V300.976H522.617V299.136H523.625V298.688C523.625 297.6 523.935 296.8 524.553 296.288C525.172 295.776 526.105 295.536 527.353 295.568V297.456C526.809 297.445 526.431 297.536 526.217 297.728C526.004 297.92 525.897 298.267 525.897 298.768V299.136H527.449V300.976ZM533.797 308.144C532.944 308.144 532.176 307.957 531.493 307.584C530.81 307.2 530.272 306.661 529.877 305.968C529.493 305.275 529.301 304.475 529.301 303.568C529.301 302.661 529.498 301.861 529.893 301.168C530.298 300.475 530.848 299.941 531.541 299.568C532.234 299.184 533.008 298.992 533.861 298.992C534.714 298.992 535.488 299.184 536.181 299.568C536.874 299.941 537.418 300.475 537.813 301.168C538.218 301.861 538.421 302.661 538.421 303.568C538.421 304.475 538.213 305.275 537.797 305.968C537.392 306.661 536.837 307.2 536.133 307.584C535.44 307.957 534.661 308.144 533.797 308.144ZM533.797 306.192C534.202 306.192 534.581 306.096 534.933 305.904C535.296 305.701 535.584 305.403 535.797 305.008C536.01 304.613 536.117 304.133 536.117 303.568C536.117 302.725 535.893 302.08 535.445 301.632C535.008 301.173 534.469 300.944 533.829 300.944C533.189 300.944 532.65 301.173 532.213 301.632C531.786 302.08 531.573 302.725 531.573 303.568C531.573 304.411 531.781 305.061 532.197 305.52C532.624 305.968 533.157 306.192 533.797 306.192ZM543.264 300.512C543.552 300.043 543.925 299.675 544.384 299.408C544.853 299.141 545.387 299.008 545.984 299.008V301.36H545.392C544.688 301.36 544.155 301.525 543.792 301.856C543.44 302.187 543.264 302.763 543.264 303.584V308H541.024V299.136H543.264V300.512ZM559.461 299.008C560.549 299.008 561.423 299.344 562.085 300.016C562.757 300.677 563.093 301.605 563.093 302.8V308H560.853V303.104C560.853 302.411 560.677 301.883 560.325 301.52C559.973 301.147 559.493 300.96 558.885 300.96C558.277 300.96 557.791 301.147 557.429 301.52C557.077 301.883 556.901 302.411 556.901 303.104V308H554.661V303.104C554.661 302.411 554.485 301.883 554.133 301.52C553.781 301.147 553.301 300.96 552.693 300.96C552.074 300.96 551.583 301.147 551.221 301.52C550.869 301.883 550.693 302.411 550.693 303.104V308H548.453V299.136H550.693V300.208C550.981 299.835 551.349 299.541 551.797 299.328C552.255 299.115 552.757 299.008 553.301 299.008C553.994 299.008 554.613 299.157 555.157 299.456C555.701 299.744 556.122 300.16 556.421 300.704C556.709 300.192 557.125 299.781 557.669 299.472C558.223 299.163 558.821 299.008 559.461 299.008ZM569.57 308.144C568.845 308.144 568.194 308.016 567.618 307.76C567.042 307.493 566.584 307.136 566.242 306.688C565.912 306.24 565.73 305.744 565.698 305.2H567.954C567.997 305.541 568.162 305.824 568.45 306.048C568.749 306.272 569.117 306.384 569.554 306.384C569.981 306.384 570.312 306.299 570.546 306.128C570.792 305.957 570.914 305.739 570.914 305.472C570.914 305.184 570.765 304.971 570.466 304.832C570.178 304.683 569.714 304.523 569.074 304.352C568.413 304.192 567.869 304.027 567.442 303.856C567.026 303.685 566.664 303.424 566.354 303.072C566.056 302.72 565.906 302.245 565.906 301.648C565.906 301.157 566.045 300.709 566.322 300.304C566.61 299.899 567.016 299.579 567.538 299.344C568.072 299.109 568.696 298.992 569.41 298.992C570.466 298.992 571.309 299.259 571.938 299.792C572.568 300.315 572.914 301.024 572.978 301.92H570.834C570.802 301.568 570.653 301.291 570.386 301.088C570.13 300.875 569.784 300.768 569.346 300.768C568.941 300.768 568.626 300.843 568.402 300.992C568.189 301.141 568.082 301.349 568.082 301.616C568.082 301.915 568.232 302.144 568.53 302.304C568.829 302.453 569.293 302.608 569.922 302.768C570.562 302.928 571.09 303.093 571.506 303.264C571.922 303.435 572.28 303.701 572.578 304.064C572.888 304.416 573.048 304.885 573.058 305.472C573.058 305.984 572.914 306.443 572.626 306.848C572.349 307.253 571.944 307.573 571.41 307.808C570.888 308.032 570.274 308.144 569.57 308.144Z" fill="white"/>
	<path d="M610 520C610 542.091 592.091 560 570 560H456C452.686 560 450 557.314 450 554V440C450 417.909 467.909 400 490 400H570C592.091 400 610 417.909 610 440V520Z" fill="#FF9D00"/>
	<path d="M490.853 475.36H495.333V478H487.433V463.96H490.853V475.36ZM498.685 465.68C498.085 465.68 497.591 465.507 497.205 465.16C496.831 464.8 496.645 464.36 496.645 463.84C496.645 463.307 496.831 462.867 497.205 462.52C497.591 462.16 498.085 461.98 498.685 461.98C499.271 461.98 499.751 462.16 500.125 462.52C500.511 462.867 500.705 463.307 500.705 463.84C500.705 464.36 500.511 464.8 500.125 465.16C499.751 465.507 499.271 465.68 498.685 465.68ZM500.385 466.84V478H496.965V466.84H500.385ZM502.183 472.44C502.183 471.333 502.41 470.347 502.863 469.48C503.33 468.613 503.95 467.94 504.723 467.46C505.51 466.967 506.363 466.72 507.283 466.72C507.99 466.72 508.623 466.847 509.183 467.1C509.743 467.34 510.196 467.68 510.543 468.12V466.84H513.963V483.32H510.543V476.6C510.156 477.067 509.683 477.44 509.123 477.72C508.576 478 507.95 478.14 507.243 478.14C506.336 478.14 505.496 477.9 504.723 477.42C503.95 476.94 503.33 476.267 502.863 475.4C502.41 474.533 502.183 473.547 502.183 472.44ZM510.543 472.42C510.543 471.82 510.423 471.32 510.183 470.92C509.956 470.507 509.656 470.2 509.283 470C508.91 469.787 508.516 469.68 508.103 469.68C507.703 469.68 507.316 469.787 506.943 470C506.57 470.2 506.263 470.507 506.023 470.92C505.783 471.333 505.663 471.84 505.663 472.44C505.663 473.04 505.783 473.547 506.023 473.96C506.263 474.36 506.57 474.667 506.943 474.88C507.316 475.08 507.703 475.18 508.103 475.18C508.503 475.18 508.89 475.08 509.263 474.88C509.65 474.667 509.956 474.353 510.183 473.94C510.423 473.527 510.543 473.02 510.543 472.42ZM527.457 466.84V478H524.037V476.48C523.691 476.973 523.217 477.373 522.617 477.68C522.031 477.973 521.377 478.12 520.657 478.12C519.804 478.12 519.051 477.933 518.397 477.56C517.744 477.173 517.237 476.62 516.877 475.9C516.517 475.18 516.337 474.333 516.337 473.36V466.84H519.737V472.9C519.737 473.647 519.931 474.227 520.317 474.64C520.704 475.053 521.224 475.26 521.877 475.26C522.544 475.26 523.071 475.053 523.457 474.64C523.844 474.227 524.037 473.647 524.037 472.9V466.84H527.457ZM531.634 465.68C531.034 465.68 530.54 465.507 530.154 465.16C529.78 464.8 529.594 464.36 529.594 463.84C529.594 463.307 529.78 462.867 530.154 462.52C530.54 462.16 531.034 461.98 531.634 461.98C532.22 461.98 532.7 462.16 533.074 462.52C533.46 462.867 533.654 463.307 533.654 463.84C533.654 464.36 533.46 464.8 533.074 465.16C532.7 465.507 532.22 465.68 531.634 465.68ZM533.334 466.84V478H529.914V466.84H533.334ZM535.132 472.4C535.132 471.253 535.346 470.247 535.772 469.38C536.212 468.513 536.806 467.847 537.552 467.38C538.299 466.913 539.132 466.68 540.052 466.68C540.786 466.68 541.452 466.833 542.052 467.14C542.666 467.447 543.146 467.86 543.492 468.38V463.2H546.912V478H543.492V476.4C543.172 476.933 542.712 477.36 542.112 477.68C541.526 478 540.839 478.16 540.052 478.16C539.132 478.16 538.299 477.927 537.552 477.46C536.806 476.98 536.212 476.307 535.772 475.44C535.346 474.56 535.132 473.547 535.132 472.4ZM543.492 472.42C543.492 471.567 543.252 470.893 542.772 470.4C542.306 469.907 541.732 469.66 541.052 469.66C540.372 469.66 539.792 469.907 539.312 470.4C538.846 470.88 538.612 471.547 538.612 472.4C538.612 473.253 538.846 473.933 539.312 474.44C539.792 474.933 540.372 475.18 541.052 475.18C541.732 475.18 542.306 474.933 542.772 474.44C543.252 473.947 543.492 473.273 543.492 472.42ZM551.106 465.68C550.506 465.68 550.013 465.507 549.626 465.16C549.253 464.8 549.066 464.36 549.066 463.84C549.066 463.307 549.253 462.867 549.626 462.52C550.013 462.16 550.506 461.98 551.106 461.98C551.693 461.98 552.173 462.16 552.546 462.52C552.933 462.867 553.126 463.307 553.126 463.84C553.126 464.36 552.933 464.8 552.546 465.16C552.173 465.507 551.693 465.68 551.106 465.68ZM552.806 466.84V478H549.386V466.84H552.806ZM561.505 475.1V478H559.765C558.525 478 557.558 477.7 556.865 477.1C556.172 476.487 555.825 475.493 555.825 474.12V469.68H554.465V466.84H555.825V464.12H559.245V466.84H561.485V469.68H559.245V474.16C559.245 474.493 559.325 474.733 559.485 474.88C559.645 475.027 559.912 475.1 560.285 475.1H561.505ZM574.81 466.84L567.81 483.3H564.13L566.69 477.62L562.15 466.84H565.97L568.55 473.82L571.11 466.84H574.81Z" fill="white"/>
	<path d="M496.455 500.288C496.455 500.885 496.311 501.445 496.023 501.968C495.746 502.491 495.303 502.912 494.695 503.232C494.098 503.552 493.34 503.712 492.423 503.712H490.551V508H488.311V496.832H492.423C493.287 496.832 494.023 496.981 494.631 497.28C495.239 497.579 495.692 497.989 495.991 498.512C496.3 499.035 496.455 499.627 496.455 500.288ZM492.327 501.904C492.946 501.904 493.404 501.765 493.703 501.488C494.002 501.2 494.151 500.8 494.151 500.288C494.151 499.2 493.543 498.656 492.327 498.656H490.551V501.904H492.327ZM501.245 496.16V508H499.005V496.16H501.245ZM503.842 503.536C503.842 502.64 504.018 501.845 504.37 501.152C504.733 500.459 505.218 499.925 505.826 499.552C506.445 499.179 507.133 498.992 507.89 498.992C508.552 498.992 509.128 499.125 509.618 499.392C510.12 499.659 510.52 499.995 510.818 500.4V499.136H513.074V508H510.818V506.704C510.53 507.12 510.13 507.467 509.618 507.744C509.117 508.011 508.536 508.144 507.874 508.144C507.128 508.144 506.445 507.952 505.826 507.568C505.218 507.184 504.733 506.645 504.37 505.952C504.018 505.248 503.842 504.443 503.842 503.536ZM510.818 503.568C510.818 503.024 510.712 502.56 510.498 502.176C510.285 501.781 509.997 501.483 509.634 501.28C509.272 501.067 508.882 500.96 508.466 500.96C508.05 500.96 507.666 501.061 507.314 501.264C506.962 501.467 506.674 501.765 506.45 502.16C506.237 502.544 506.13 503.003 506.13 503.536C506.13 504.069 506.237 504.539 506.45 504.944C506.674 505.339 506.962 505.643 507.314 505.856C507.677 506.069 508.061 506.176 508.466 506.176C508.882 506.176 509.272 506.075 509.634 505.872C509.997 505.659 510.285 505.36 510.498 504.976C510.712 504.581 510.818 504.112 510.818 503.568ZM518.83 500.976V505.264C518.83 505.563 518.899 505.781 519.038 505.92C519.187 506.048 519.433 506.112 519.774 506.112H520.814V508H519.406C517.518 508 516.574 507.083 516.574 505.248V500.976H515.518V499.136H516.574V496.944H518.83V499.136H520.814V500.976H518.83ZM527.449 500.976H525.897V508H523.625V500.976H522.617V499.136H523.625V498.688C523.625 497.6 523.935 496.8 524.553 496.288C525.172 495.776 526.105 495.536 527.353 495.568V497.456C526.809 497.445 526.431 497.536 526.217 497.728C526.004 497.92 525.897 498.267 525.897 498.768V499.136H527.449V500.976ZM533.797 508.144C532.944 508.144 532.176 507.957 531.493 507.584C530.81 507.2 530.272 506.661 529.877 505.968C529.493 505.275 529.301 504.475 529.301 503.568C529.301 502.661 529.498 501.861 529.893 501.168C530.298 500.475 530.848 499.941 531.541 499.568C532.234 499.184 533.008 498.992 533.861 498.992C534.714 498.992 535.488 499.184 536.181 499.568C536.874 499.941 537.418 500.475 537.813 501.168C538.218 501.861 538.421 502.661 538.421 503.568C538.421 504.475 538.213 505.275 537.797 505.968C537.392 506.661 536.837 507.2 536.133 507.584C535.44 507.957 534.661 508.144 533.797 508.144ZM533.797 506.192C534.202 506.192 534.581 506.096 534.933 505.904C535.296 505.701 535.584 505.403 535.797 505.008C536.01 504.613 536.117 504.133 536.117 503.568C536.117 502.725 535.893 502.08 535.445 501.632C535.008 501.173 534.469 500.944 533.829 500.944C533.189 500.944 532.65 501.173 532.213 501.632C531.786 502.08 531.573 502.725 531.573 503.568C531.573 504.411 531.781 505.061 532.197 505.52C532.624 505.968 533.157 506.192 533.797 506.192ZM543.264 500.512C543.552 500.043 543.925 499.675 544.384 499.408C544.853 499.141 545.387 499.008 545.984 499.008V501.36H545.392C544.688 501.36 544.155 501.525 543.792 501.856C543.44 502.187 543.264 502.763 543.264 503.584V508H541.024V499.136H543.264V500.512ZM559.461 499.008C560.549 499.008 561.423 499.344 562.085 500.016C562.757 500.677 563.093 501.605 563.093 502.8V508H560.853V503.104C560.853 502.411 560.677 501.883 560.325 501.52C559.973 501.147 559.493 500.96 558.885 500.96C558.277 500.96 557.791 501.147 557.429 501.52C557.077 501.883 556.901 502.411 556.901 503.104V508H554.661V503.104C554.661 502.411 554.485 501.883 554.133 501.52C553.781 501.147 553.301 500.96 552.693 500.96C552.074 500.96 551.583 501.147 551.221 501.52C550.869 501.883 550.693 502.411 550.693 503.104V508H548.453V499.136H550.693V500.208C550.981 499.835 551.349 499.541 551.797 499.328C552.255 499.115 552.757 499.008 553.301 499.008C553.994 499.008 554.613 499.157 555.157 499.456C555.701 499.744 556.122 500.16 556.421 500.704C556.709 500.192 557.125 499.781 557.669 499.472C558.223 499.163 558.821 499.008 559.461 499.008ZM569.57 508.144C568.845 508.144 568.194 508.016 567.618 507.76C567.042 507.493 566.584 507.136 566.242 506.688C565.912 506.24 565.73 505.744 565.698 505.2H567.954C567.997 505.541 568.162 505.824 568.45 506.048C568.749 506.272 569.117 506.384 569.554 506.384C569.981 506.384 570.312 506.299 570.546 506.128C570.792 505.957 570.914 505.739 570.914 505.472C570.914 505.184 570.765 504.971 570.466 504.832C570.178 504.683 569.714 504.523 569.074 504.352C568.413 504.192 567.869 504.027 567.442 503.856C567.026 503.685 566.664 503.424 566.354 503.072C566.056 502.72 565.906 502.245 565.906 501.648C565.906 501.157 566.045 500.709 566.322 500.304C566.61 499.899 567.016 499.579 567.538 499.344C568.072 499.109 568.696 498.992 569.41 498.992C570.466 498.992 571.309 499.259 571.938 499.792C572.568 500.315 572.914 501.024 572.978 501.92H570.834C570.802 501.568 570.653 501.291 570.386 501.088C570.13 500.875 569.784 500.768 569.346 500.768C568.941 500.768 568.626 500.843 568.402 500.992C568.189 501.141 568.082 501.349 568.082 501.616C568.082 501.915 568.232 502.144 568.53 502.304C568.829 502.453 569.293 502.608 569.922 502.768C570.562 502.928 571.09 503.093 571.506 503.264C571.922 503.435 572.28 503.701 572.578 504.064C572.888 504.416 573.048 504.885 573.058 505.472C573.058 505.984 572.914 506.443 572.626 506.848C572.349 507.253 571.944 507.573 571.41 507.808C570.888 508.032 570.274 508.144 569.57 508.144Z" fill="white"/>
	<path d="M465 81C465.552 81 466 80.5523 466 80C466 79.4477 465.552 79 465 79L465 81ZM368.293 249.293C367.902 249.683 367.902 250.317 368.293 250.707L374.657 257.071C375.047 257.461 375.681 257.461 376.071 257.071C376.462 256.68 376.462 256.047 376.071 255.657L370.414 250L376.071 244.343C376.461 243.952 376.461 243.319 376.071 242.929C375.68 242.538 375.047 242.538 374.657 242.929L368.293 249.293ZM394.25 250L394.25 251L394.25 250ZM465 79L414.25 79L414.25 81L465 81L465 79ZM403.25 90L403.25 240L405.25 240L405.25 90L403.25 90ZM394.25 249L369 249L369 251L394.25 251L394.25 249ZM403.25 240C403.25 244.97 399.221 249 394.25 249L394.25 251C400.325 250.999 405.25 246.075 405.25 240L403.25 240ZM414.25 79C408.175 79 403.25 83.9248 403.25 90L405.25 90C405.25 85.0294 409.279 81 414.25 81L414.25 79Z" fill="#2EAE69"/>
	<path d="M451 79C450.448 79 450 79.4477 450 80C450 80.5523 450.448 81 451 81V79ZM465 81C465.552 81 466 80.5523 466 80C466 79.4477 465.552 79 465 79V81ZM451 81H465V79H451V81Z" fill="white"/>
	<path d="M465 479C465.552 479 466 479.448 466 480C466 480.552 465.552 481 465 481L465 479ZM368.293 310.707C367.902 310.317 367.902 309.683 368.293 309.293L374.657 302.929C375.047 302.539 375.681 302.539 376.071 302.929C376.462 303.32 376.462 303.953 376.071 304.343L370.414 310L376.071 315.657C376.461 316.048 376.461 316.681 376.071 317.071C375.68 317.462 375.047 317.462 374.657 317.071L368.293 310.707ZM394.25 310L394.25 309L394.25 310ZM465 481L414.25 481L414.25 479L465 479L465 481ZM403.25 470L403.25 320L405.25 320L405.25 470L403.25 470ZM394.25 311L369 311L369 309L394.25 309L394.25 311ZM403.25 320C403.25 315.03 399.221 311 394.25 311L394.25 309C400.325 309.001 405.25 313.925 405.25 320L403.25 320ZM414.25 481C408.175 481 403.25 476.075 403.25 470L405.25 470C405.25 474.971 409.279 479 414.25 479L414.25 481Z" fill="#FF9D00"/>
	<path d="M451 481C450.448 481 450 480.552 450 480C450 479.448 450.448 479 451 479V481ZM465 479C465.552 479 466 479.448 466 480C466 480.552 465.552 481 465 481V479ZM451 479H465V481H451V479Z" fill="white"/>
	<path d="M464 281C464.552 281 465 280.552 465 280C465 279.448 464.552 279 464 279L464 281ZM367.293 279.293C366.902 279.683 366.902 280.317 367.293 280.707L373.657 287.071C374.047 287.462 374.681 287.462 375.071 287.071C375.462 286.681 375.462 286.047 375.071 285.657L369.414 280L375.071 274.343C375.462 273.953 375.462 273.319 375.071 272.929C374.681 272.538 374.047 272.538 373.657 272.929L367.293 279.293ZM464 279L368 279L368 281L464 281L464 279Z" fill="#2E3BAE"/>
	<path d="M451 279C450.448 279 450 279.448 450 280C450 280.552 450.448 281 451 281V279ZM465 281C465.552 281 466 280.552 466 280C466 279.448 465.552 279 465 279V281ZM451 281H465V279H451V281Z" fill="white"/>
	<path d="M148 83C147.448 83 147 83.4477 147 84C147 84.5523 147.448 85 148 85V83ZM192.707 84.7071C193.098 84.3166 193.098 83.6834 192.707 83.2929L186.343 76.9289C185.953 76.5384 185.319 76.5384 184.929 76.9289C184.538 77.3195 184.538 77.9526 184.929 78.3431L190.586 84L184.929 89.6569C184.538 90.0474 184.538 90.6805 184.929 91.0711C185.319 91.4616 185.953 91.4616 186.343 91.0711L192.707 84.7071ZM148 85H192V83H148V85Z" fill="#159CAE"/>
	<path d="M148 83C147.448 83 147 83.4477 147 84C147 84.5523 147.448 85 148 85V83ZM159 85C159.552 85 160 84.5523 160 84C160 83.4477 159.552 83 159 83V85ZM148 85H159V83H148V85Z" fill="white"/>
	<path d="M285 149C285 148.448 284.552 148 284 148C283.448 148 283 148.448 283 149L285 149ZM283.293 192.707C283.683 193.098 284.317 193.098 284.707 192.707L291.071 186.343C291.462 185.953 291.462 185.319 291.071 184.929C290.681 184.538 290.047 184.538 289.657 184.929L284 190.586L278.343 184.929C277.953 184.538 277.319 184.538 276.929 184.929C276.538 185.319 276.538 185.953 276.929 186.343L283.293 192.707ZM283 149L283 192L285 192L285 149L283 149Z" fill="#159CAE"/>
	<path d="M285 149C285 148.448 284.552 148 284 148C283.448 148 283 148.448 283 149L285 149ZM283 159C283 159.552 283.448 160 284 160C284.552 160 285 159.552 285 159L283 159ZM283 149L283 159L285 159L285 149L283 149Z" fill="white"/>
</svg>
