<svg width="661" height="555" viewBox="0 0 661 555" fill="none" xmlns="http://www.w3.org/2000/svg">
	<path d="M484 281.75C484 386.684 398.934 471.75 294 471.75C189.066 471.75 104 386.684 104 281.75C104 176.816 189.066 91.75 294 91.75C398.934 91.75 484 176.816 484 281.75Z" fill="white" stroke="#F3F3F6" stroke-width="2"/>
	<path d="M362 408.75C467.486 408.75 553 323.236 553 217.75C553 112.264 467.486 26.75 362 26.75C256.514 26.75 171 112.264 171 217.75C171 323.236 256.514 408.75 362 408.75Z" fill="#F9F5EF"/>
	<mask id="mask0" mask-type="alpha" maskUnits="userSpaceOnUse" x="295" y="230" width="260" height="261">
	<circle cx="425" cy="360.75" r="129.5" fill="#C4C4C4" stroke="#2EAE69"/>
	</mask>
	<g mask="url(#mask0)">
	<line x1="111.939" y1="502.689" x2="408.939" y2="205.689" stroke="#2EAE69" stroke-width="3"/>
	<line x1="131.939" y1="502.689" x2="428.939" y2="205.689" stroke="#2EAE69" stroke-width="3"/>
	<line x1="151.939" y1="502.689" x2="448.939" y2="205.689" stroke="#2EAE69" stroke-width="3"/>
	<line x1="171.939" y1="502.689" x2="468.939" y2="205.689" stroke="#2EAE69" stroke-width="3"/>
	<line x1="191.939" y1="502.689" x2="488.939" y2="205.689" stroke="#2EAE69" stroke-width="3"/>
	<line x1="211.939" y1="502.689" x2="508.939" y2="205.689" stroke="#2EAE69" stroke-width="3"/>
	<line x1="231.939" y1="502.689" x2="528.939" y2="205.689" stroke="#2EAE69" stroke-width="3"/>
	<line x1="251.939" y1="502.689" x2="548.939" y2="205.689" stroke="#2EAE69" stroke-width="3"/>
	<line x1="271.939" y1="502.689" x2="568.939" y2="205.689" stroke="#2EAE69" stroke-width="3"/>
	<line x1="291.939" y1="502.689" x2="588.939" y2="205.689" stroke="#2EAE69" stroke-width="3"/>
	<line x1="311.939" y1="502.689" x2="608.939" y2="205.689" stroke="#2EAE69" stroke-width="3"/>
	<line x1="331.939" y1="502.689" x2="628.939" y2="205.689" stroke="#2EAE69" stroke-width="3"/>
	<line x1="351.939" y1="502.689" x2="648.939" y2="205.689" stroke="#2EAE69" stroke-width="3"/>
	<line x1="371.939" y1="502.689" x2="668.939" y2="205.689" stroke="#2EAE69" stroke-width="3"/>
	<line x1="391.939" y1="502.689" x2="688.939" y2="205.689" stroke="#2EAE69" stroke-width="3"/>
	<line x1="411.939" y1="502.689" x2="708.939" y2="205.689" stroke="#2EAE69" stroke-width="3"/>
	<line x1="431.939" y1="502.689" x2="728.939" y2="205.689" stroke="#2EAE69" stroke-width="3"/>
	<line x1="451.939" y1="502.689" x2="748.939" y2="205.689" stroke="#2EAE69" stroke-width="3"/>
	<line x1="471.939" y1="502.689" x2="768.939" y2="205.689" stroke="#2EAE69" stroke-width="3"/>
	<line x1="491.939" y1="502.689" x2="788.939" y2="205.689" stroke="#2EAE69" stroke-width="3"/>
	<line x1="511.939" y1="502.689" x2="808.939" y2="205.689" stroke="#2EAE69" stroke-width="3"/>
	</g>
	<path d="M303.65 158.87C305.031 158.87 306.15 157.751 306.15 156.37C306.15 154.989 305.031 153.87 303.65 153.87C302.27 153.87 301.15 154.989 301.15 156.37C301.15 157.751 302.27 158.87 303.65 158.87Z" fill="#FF9D00"/>
	<path d="M328.43 161.06C327.17 161.06 326.16 160.04 326.16 158.79C326.16 157.53 327.18 156.52 328.43 156.52C329.68 156.52 330.7 157.54 330.7 158.79C330.71 160.04 329.69 161.06 328.43 161.06Z" fill="#FF9D00"/>
	<path d="M352.26 168.05C351.13 168.05 350.21 167.13 350.21 166C350.21 164.87 351.13 163.95 352.26 163.95C353.39 163.95 354.31 164.87 354.31 166C354.31 167.13 353.39 168.05 352.26 168.05Z" fill="#FF9D00"/>
	<path d="M374.201 179.57C375.206 179.57 376.021 178.755 376.021 177.75C376.021 176.745 375.206 175.93 374.201 175.93C373.196 175.93 372.381 176.745 372.381 177.75C372.381 178.755 373.196 179.57 374.201 179.57Z" fill="#FF9D00"/>
	<path d="M393.441 195.15C392.561 195.15 391.841 194.43 391.841 193.55C391.841 192.67 392.561 191.95 393.441 191.95C394.321 191.95 395.041 192.67 395.041 193.55C395.041 194.43 394.321 195.15 393.441 195.15Z" fill="#FF9D00"/>
	<path d="M409.24 214.16C408.48 214.16 407.87 213.55 407.87 212.79C407.87 212.03 408.48 211.42 409.24 211.42C410 211.42 410.61 212.03 410.61 212.79C410.61 213.55 410 214.16 409.24 214.16Z" fill="#FF9D00"/>
	<path d="M420.991 235.88C420.361 235.88 419.841 235.37 419.841 234.73C419.841 234.1 420.351 233.58 420.991 233.58C421.621 233.58 422.141 234.09 422.141 234.73C422.141 235.37 421.621 235.88 420.991 235.88Z" fill="#FF9D00"/>
	<path d="M428.21 259.48C427.7 259.48 427.29 259.07 427.29 258.56C427.29 258.05 427.7 257.64 428.21 257.64C428.72 257.64 429.13 258.05 429.13 258.56C429.13 259.07 428.72 259.48 428.21 259.48Z" fill="#FF9D00"/>
	<path d="M430.63 284.03C431.012 284.03 431.32 283.721 431.32 283.34C431.32 282.959 431.012 282.65 430.63 282.65C430.249 282.65 429.94 282.959 429.94 283.34C429.94 283.721 430.249 284.03 430.63 284.03Z" fill="#FF9D00"/>
	<path d="M303.65 143.37C305.031 143.37 306.15 142.251 306.15 140.87C306.15 139.489 305.031 138.37 303.65 138.37C302.27 138.37 301.15 139.489 301.15 140.87C301.15 142.251 302.27 143.37 303.65 143.37Z" fill="#FF9D00"/>
	<path d="M329.471 145.65C328.141 145.65 327.061 144.57 327.061 143.24C327.061 141.91 328.141 140.83 329.471 140.83C330.801 140.83 331.881 141.91 331.881 143.24C331.881 144.57 330.801 145.65 329.471 145.65Z" fill="#FF9D00"/>
	<path d="M354.411 152.63C355.686 152.63 356.721 151.596 356.721 150.32C356.721 149.044 355.686 148.01 354.411 148.01C353.135 148.01 352.101 149.044 352.101 150.32C352.101 151.596 353.135 152.63 354.411 152.63Z" fill="#FF9D00"/>
	<path d="M377.611 164.11C376.391 164.11 375.391 163.12 375.391 161.89C375.391 160.67 376.381 159.67 377.611 159.67C378.831 159.67 379.831 160.66 379.831 161.89C379.821 163.12 378.831 164.11 377.611 164.11Z" fill="#FF9D00"/>
	<path d="M398.28 179.65C397.11 179.65 396.16 178.7 396.16 177.53C396.16 176.36 397.11 175.41 398.28 175.41C399.45 175.41 400.4 176.36 400.4 177.53C400.4 178.7 399.46 179.65 398.28 179.65Z" fill="#FF9D00"/>
	<path d="M415.751 198.71C414.631 198.71 413.721 197.8 413.721 196.68C413.721 195.56 414.631 194.65 415.751 194.65C416.871 194.65 417.781 195.56 417.781 196.68C417.781 197.8 416.871 198.71 415.751 198.71Z" fill="#FF9D00"/>
	<path d="M429.42 220.65C428.35 220.65 427.49 219.78 427.49 218.72C427.49 217.65 428.36 216.79 429.42 216.79C430.48 216.79 431.35 217.66 431.35 218.72C431.35 219.78 430.49 220.65 429.42 220.65Z" fill="#FF9D00"/>
	<path d="M438.79 244.72C439.806 244.72 440.63 243.896 440.63 242.88C440.63 241.864 439.806 241.04 438.79 241.04C437.774 241.04 436.95 241.864 436.95 242.88C436.95 243.896 437.774 244.72 438.79 244.72Z" fill="#FF9D00"/>
	<path d="M443.53 270.12C442.57 270.12 441.79 269.34 441.79 268.38C441.79 267.42 442.57 266.64 443.53 266.64C444.49 266.64 445.27 267.42 445.27 268.38C445.27 269.34 444.49 270.12 443.53 270.12Z" fill="#FF9D00"/>
	<path d="M443.531 295.95C442.621 295.95 441.881 295.21 441.881 294.3C441.881 293.39 442.621 292.65 443.531 292.65C444.441 292.65 445.181 293.39 445.181 294.3C445.181 295.21 444.441 295.95 443.531 295.95Z" fill="#FF9D00"/>
	<path d="M438.79 321.34C437.93 321.34 437.24 320.64 437.24 319.79C437.24 318.93 437.94 318.24 438.79 318.24C439.65 318.24 440.34 318.94 440.34 319.79C440.34 320.64 439.65 321.34 438.79 321.34Z" fill="#FF9D00"/>
	<path d="M429.42 345.42C428.61 345.42 427.96 344.77 427.96 343.96C427.96 343.15 428.61 342.5 429.42 342.5C430.23 342.5 430.88 343.15 430.88 343.96C430.88 344.76 430.23 345.42 429.42 345.42Z" fill="#FF9D00"/>
	<path d="M415.76 367.35C415.01 367.35 414.4 366.74 414.4 365.99C414.4 365.24 415.01 364.63 415.76 364.63C416.51 364.63 417.12 365.24 417.12 365.99C417.12 366.74 416.51 367.35 415.76 367.35Z" fill="#FF9D00"/>
	<path d="M398.29 386.41C397.59 386.41 397.021 385.84 397.021 385.14C397.021 384.44 397.59 383.87 398.29 383.87C398.99 383.87 399.56 384.44 399.56 385.14C399.55 385.84 398.99 386.41 398.29 386.41Z" fill="#FF9D00"/>
	<path d="M377.61 401.95C376.96 401.95 376.44 401.42 376.44 400.78C376.44 400.14 376.97 399.61 377.61 399.61C378.26 399.61 378.78 400.14 378.78 400.78C378.78 401.42 378.26 401.95 377.61 401.95Z" fill="#FF9D00"/>
	<path d="M354.41 413.43C353.81 413.43 353.33 412.95 353.33 412.35C353.33 411.75 353.81 411.27 354.41 411.27C355.01 411.27 355.49 411.75 355.49 412.35C355.49 412.95 355.01 413.43 354.41 413.43Z" fill="#FF9D00"/>
	<path d="M329.47 420.42C330.017 420.42 330.46 419.977 330.46 419.43C330.46 418.883 330.017 418.44 329.47 418.44C328.924 418.44 328.48 418.883 328.48 419.43C328.48 419.977 328.924 420.42 329.47 420.42Z" fill="#FF9D00"/>
	<path d="M303.651 422.69C304.142 422.69 304.541 422.292 304.541 421.8C304.541 421.309 304.142 420.91 303.651 420.91C303.159 420.91 302.761 421.309 302.761 421.8C302.761 422.292 303.159 422.69 303.651 422.69Z" fill="#FF9D00"/>
	<path d="M303.65 127.66C305.031 127.66 306.15 126.541 306.15 125.16C306.15 123.779 305.031 122.66 303.65 122.66C302.27 122.66 301.15 123.779 301.15 125.16C301.15 126.541 302.27 127.66 303.65 127.66Z" fill="#FF9D00"/>
	<path d="M329.781 129.83C328.431 129.83 327.341 128.74 327.341 127.39C327.341 126.04 328.431 124.95 329.781 124.95C331.131 124.95 332.221 126.04 332.221 127.39C332.221 128.74 331.131 129.83 329.781 129.83Z" fill="#FF9D00"/>
	<path d="M355.141 136.47C356.455 136.47 357.521 135.405 357.521 134.09C357.521 132.776 356.455 131.71 355.141 131.71C353.826 131.71 352.761 132.776 352.761 134.09C352.761 135.405 353.826 136.47 355.141 136.47Z" fill="#FF9D00"/>
	<path d="M378.951 147.39C377.671 147.39 376.631 146.35 376.631 145.07C376.631 143.79 377.671 142.75 378.951 142.75C380.231 142.75 381.271 143.79 381.271 145.07C381.281 146.35 380.241 147.39 378.951 147.39Z" fill="#FF9D00"/>
	<path d="M400.53 162.23C399.28 162.23 398.271 161.22 398.271 159.97C398.271 158.72 399.28 157.71 400.53 157.71C401.78 157.71 402.79 158.72 402.79 159.97C402.79 161.22 401.78 162.23 400.53 162.23Z" fill="#FF9D00"/>
	<path d="M419.24 180.55C420.461 180.55 421.45 179.561 421.45 178.34C421.45 177.12 420.461 176.13 419.24 176.13C418.02 176.13 417.03 177.12 417.03 178.34C417.03 179.561 418.02 180.55 419.24 180.55Z" fill="#FF9D00"/>
	<path d="M434.531 201.79C433.341 201.79 432.381 200.83 432.381 199.64C432.381 198.45 433.341 197.49 434.531 197.49C435.721 197.49 436.681 198.45 436.681 199.64C436.681 200.83 435.721 201.79 434.531 201.79Z" fill="#FF9D00"/>
	<path d="M448.019 223.616C448.203 222.477 447.428 221.404 446.289 221.22C445.149 221.036 444.076 221.811 443.893 222.95C443.709 224.09 444.483 225.162 445.623 225.346C446.762 225.53 447.835 224.756 448.019 223.616Z" fill="#FF9D00"/>
	<path d="M453.1 250.51C451.98 250.51 451.07 249.6 451.07 248.48C451.07 247.36 451.98 246.45 453.1 246.45C454.22 246.45 455.13 247.36 455.13 248.48C455.13 249.6 454.22 250.51 453.1 250.51Z" fill="#FF9D00"/>
	<path d="M455.811 276.53C454.721 276.53 453.841 275.65 453.841 274.56C453.841 273.47 454.721 272.59 455.811 272.59C456.901 272.59 457.781 273.47 457.781 274.56C457.781 275.65 456.901 276.53 455.811 276.53Z" fill="#FF9D00"/>
	<path d="M454.051 302.64C452.991 302.64 452.141 301.78 452.141 300.73C452.141 299.67 453.001 298.82 454.051 298.82C455.111 298.82 455.961 299.68 455.961 300.73C455.961 301.78 455.101 302.64 454.051 302.64Z" fill="#FF9D00"/>
	<path d="M447.821 328.05C446.801 328.05 445.971 327.22 445.971 326.2C445.971 325.18 446.801 324.35 447.821 324.35C448.841 324.35 449.671 325.18 449.671 326.2C449.671 327.22 448.841 328.05 447.821 328.05Z" fill="#FF9D00"/>
	<path d="M437.28 352.01C436.29 352.01 435.49 351.21 435.49 350.22C435.49 349.23 436.29 348.43 437.28 348.43C438.27 348.43 439.07 349.23 439.07 350.22C439.07 351.2 438.27 352.01 437.28 352.01Z" fill="#FF9D00"/>
	<path d="M422.771 373.79C421.811 373.79 421.041 373.01 421.041 372.06C421.041 371.1 421.821 370.33 422.771 370.33C423.731 370.33 424.501 371.11 424.501 372.06C424.501 373.01 423.731 373.79 422.771 373.79Z" fill="#FF9D00"/>
	<path d="M404.741 392.77C403.811 392.77 403.061 392.02 403.061 391.09C403.061 390.16 403.811 389.41 404.741 389.41C405.671 389.41 406.421 390.16 406.421 391.09C406.411 392.02 405.661 392.77 404.741 392.77Z" fill="#FF9D00"/>
	<path d="M383.721 408.39C382.831 408.39 382.101 407.67 382.101 406.77C382.101 405.87 382.821 405.15 383.721 405.15C384.621 405.15 385.341 405.87 385.341 406.77C385.341 407.67 384.611 408.39 383.721 408.39Z" fill="#FF9D00"/>
	<path d="M360.321 420.17C359.461 420.17 358.761 419.47 358.761 418.61C358.761 417.75 359.461 417.05 360.321 417.05C361.181 417.05 361.881 417.75 361.881 418.61C361.881 419.47 361.181 420.17 360.321 420.17Z" fill="#FF9D00"/>
	<path d="M335.23 427.73C334.4 427.73 333.73 427.06 333.73 426.23C333.73 425.4 334.4 424.73 335.23 424.73C336.06 424.73 336.73 425.4 336.73 426.23C336.73 427.06 336.06 427.73 335.23 427.73Z" fill="#FF9D00"/>
	<path d="M309.201 430.86C308.401 430.86 307.761 430.22 307.761 429.42C307.761 428.62 308.401 427.98 309.201 427.98C310.001 427.98 310.641 428.62 310.641 429.42C310.641 430.22 310.001 430.86 309.201 430.86Z" fill="#FF9D00"/>
	<path d="M283.011 429.51C282.251 429.51 281.631 428.89 281.631 428.13C281.631 427.37 282.251 426.75 283.011 426.75C283.771 426.75 284.391 427.37 284.391 428.13C284.391 428.89 283.771 429.51 283.011 429.51Z" fill="#FF9D00"/>
	<path d="M257.43 423.69C256.7 423.69 256.11 423.1 256.11 422.37C256.11 421.64 256.7 421.05 257.43 421.05C258.16 421.05 258.75 421.64 258.75 422.37C258.75 423.1 258.16 423.69 257.43 423.69Z" fill="#FF9D00"/>
	<path d="M233.221 413.53C232.521 413.53 231.961 412.96 231.961 412.27C231.961 411.57 232.531 411.01 233.221 411.01C233.921 411.01 234.481 411.58 234.481 412.27C234.491 412.97 233.921 413.53 233.221 413.53Z" fill="#FF9D00"/>
	<path d="M211.121 399.36C210.451 399.36 209.921 398.82 209.921 398.16C209.921 397.5 210.461 396.96 211.121 396.96C211.781 396.96 212.321 397.5 212.321 398.16C212.321 398.82 211.791 399.36 211.121 399.36Z" fill="#FF9D00"/>
	<path d="M191.751 381.62C192.386 381.62 192.901 381.105 192.901 380.47C192.901 379.835 192.386 379.32 191.751 379.32C191.115 379.32 190.601 379.835 190.601 380.47C190.601 381.105 191.115 381.62 191.751 381.62Z" fill="#FF9D00"/>
	<path d="M312.5 466.75C387.335 466.75 448 406.085 448 331.25C448 256.415 387.335 195.75 312.5 195.75C237.665 195.75 177 256.415 177 331.25C177 406.085 237.665 466.75 312.5 466.75Z" fill="#FFC200"/>
	<path d="M310.028 82L306.348 75.606H304.347V82H301.725V66.015H307.245C308.472 66.015 309.507 66.2297 310.35 66.659C311.209 67.0883 311.845 67.6633 312.259 68.384C312.688 69.1047 312.903 69.9097 312.903 70.799C312.903 71.8417 312.596 72.7923 311.983 73.651C311.385 74.4943 310.457 75.0693 309.2 75.376L313.156 82H310.028ZM304.347 73.513H307.245C308.226 73.513 308.962 73.2677 309.453 72.777C309.959 72.2863 310.212 71.627 310.212 70.799C310.212 69.971 309.967 69.327 309.476 68.867C308.985 68.3917 308.242 68.154 307.245 68.154H304.347V73.513ZM327.872 75.353C327.872 75.8283 327.842 76.2577 327.78 76.641H318.097C318.174 77.653 318.55 78.4657 319.224 79.079C319.899 79.6923 320.727 79.999 321.708 79.999C323.119 79.999 324.116 79.4087 324.698 78.228H327.527C327.144 79.3933 326.446 80.3517 325.434 81.103C324.438 81.839 323.196 82.207 321.708 82.207C320.497 82.207 319.408 81.9387 318.442 81.402C317.492 80.85 316.74 80.0833 316.188 79.102C315.652 78.1053 315.383 76.9553 315.383 75.652C315.383 74.3487 315.644 73.2063 316.165 72.225C316.702 71.2283 317.446 70.4617 318.396 69.925C319.362 69.3883 320.466 69.12 321.708 69.12C322.904 69.12 323.97 69.3807 324.905 69.902C325.841 70.4233 326.569 71.1593 327.09 72.11C327.612 73.0453 327.872 74.1263 327.872 75.353ZM325.135 74.525C325.12 73.559 324.775 72.7847 324.1 72.202C323.426 71.6193 322.59 71.328 321.593 71.328C320.689 71.328 319.914 71.6193 319.27 72.202C318.626 72.7693 318.243 73.5437 318.12 74.525H325.135ZM329.579 75.606C329.579 74.3333 329.839 73.2063 330.361 72.225C330.897 71.2437 331.618 70.4847 332.523 69.948C333.443 69.396 334.455 69.12 335.559 69.12C336.555 69.12 337.422 69.3193 338.158 69.718C338.909 70.1013 339.507 70.5843 339.952 71.167V69.327H342.597V82H339.952V80.114C339.507 80.712 338.901 81.2103 338.135 81.609C337.368 82.0077 336.494 82.207 335.513 82.207C334.424 82.207 333.427 81.931 332.523 81.379C331.618 80.8117 330.897 80.0297 330.361 79.033C329.839 78.021 329.579 76.8787 329.579 75.606ZM339.952 75.652C339.952 74.778 339.768 74.019 339.4 73.375C339.047 72.731 338.579 72.2403 337.997 71.903C337.414 71.5657 336.785 71.397 336.111 71.397C335.436 71.397 334.807 71.5657 334.225 71.903C333.642 72.225 333.167 72.708 332.799 73.352C332.446 73.9807 332.27 74.732 332.27 75.606C332.27 76.48 332.446 77.2467 332.799 77.906C333.167 78.5653 333.642 79.0713 334.225 79.424C334.823 79.7613 335.451 79.93 336.111 79.93C336.785 79.93 337.414 79.7613 337.997 79.424C338.579 79.0867 339.047 78.596 339.4 77.952C339.768 77.2927 339.952 76.526 339.952 75.652ZM348.662 64.98V82H346.04V64.98H348.662ZM375.099 69.327L371.166 82H368.406L365.853 72.639L363.3 82H360.54L356.584 69.327H359.252L361.897 79.516L364.588 69.327H367.325L369.901 79.47L372.523 69.327H375.099ZM382.556 82.207C381.36 82.207 380.279 81.9387 379.313 81.402C378.347 80.85 377.588 80.0833 377.036 79.102C376.484 78.1053 376.208 76.9553 376.208 75.652C376.208 74.364 376.492 73.2217 377.059 72.225C377.626 71.2283 378.401 70.4617 379.382 69.925C380.363 69.3883 381.46 69.12 382.671 69.12C383.882 69.12 384.979 69.3883 385.96 69.925C386.941 70.4617 387.716 71.2283 388.283 72.225C388.85 73.2217 389.134 74.364 389.134 75.652C389.134 76.94 388.843 78.0823 388.26 79.079C387.677 80.0757 386.88 80.85 385.868 81.402C384.871 81.9387 383.767 82.207 382.556 82.207ZM382.556 79.93C383.231 79.93 383.859 79.769 384.442 79.447C385.04 79.125 385.523 78.642 385.891 77.998C386.259 77.354 386.443 76.572 386.443 75.652C386.443 74.732 386.267 73.9577 385.914 73.329C385.561 72.685 385.094 72.202 384.511 71.88C383.928 71.558 383.3 71.397 382.625 71.397C381.95 71.397 381.322 71.558 380.739 71.88C380.172 72.202 379.719 72.685 379.382 73.329C379.045 73.9577 378.876 74.732 378.876 75.652C378.876 77.0167 379.221 78.0747 379.911 78.826C380.616 79.562 381.498 79.93 382.556 79.93ZM394.348 71.167C394.731 70.523 395.237 70.0247 395.866 69.672C396.51 69.304 397.269 69.12 398.143 69.12V71.834H397.476C396.449 71.834 395.667 72.0947 395.13 72.616C394.609 73.1373 394.348 74.042 394.348 75.33V82H391.726V69.327H394.348V71.167ZM403.175 64.98V82H400.553V64.98H403.175ZM405.744 75.606C405.744 74.3333 406.004 73.2063 406.526 72.225C407.062 71.2437 407.783 70.4847 408.688 69.948C409.608 69.396 410.627 69.12 411.747 69.12C412.575 69.12 413.387 69.304 414.185 69.672C414.997 70.0247 415.641 70.5 416.117 71.098V64.98H418.762V82H416.117V80.091C415.687 80.7043 415.089 81.2103 414.323 81.609C413.571 82.0077 412.705 82.207 411.724 82.207C410.62 82.207 409.608 81.931 408.688 81.379C407.783 80.8117 407.062 80.0297 406.526 79.033C406.004 78.021 405.744 76.8787 405.744 75.606ZM416.117 75.652C416.117 74.778 415.933 74.019 415.565 73.375C415.212 72.731 414.744 72.2403 414.162 71.903C413.579 71.5657 412.95 71.397 412.276 71.397C411.601 71.397 410.972 71.5657 410.39 71.903C409.807 72.225 409.332 72.708 408.964 73.352C408.611 73.9807 408.435 74.732 408.435 75.606C408.435 76.48 408.611 77.2467 408.964 77.906C409.332 78.5653 409.807 79.0713 410.39 79.424C410.988 79.7613 411.616 79.93 412.276 79.93C412.95 79.93 413.579 79.7613 414.162 79.424C414.744 79.0867 415.212 78.596 415.565 77.952C415.933 77.2927 416.117 76.526 416.117 75.652ZM300.851 100.606C300.851 99.3333 301.112 98.2063 301.633 97.225C302.17 96.2437 302.89 95.4847 303.795 94.948C304.715 94.396 305.727 94.12 306.831 94.12C307.828 94.12 308.694 94.3193 309.43 94.718C310.181 95.1013 310.779 95.5843 311.224 96.167V94.327H313.869V107H311.224V105.114C310.779 105.712 310.174 106.21 309.407 106.609C308.64 107.008 307.766 107.207 306.785 107.207C305.696 107.207 304.7 106.931 303.795 106.379C302.89 105.812 302.17 105.03 301.633 104.033C301.112 103.021 300.851 101.879 300.851 100.606ZM311.224 100.652C311.224 99.778 311.04 99.019 310.672 98.375C310.319 97.731 309.852 97.2403 309.269 96.903C308.686 96.5657 308.058 96.397 307.383 96.397C306.708 96.397 306.08 96.5657 305.497 96.903C304.914 97.225 304.439 97.708 304.071 98.352C303.718 98.9807 303.542 99.732 303.542 100.606C303.542 101.48 303.718 102.247 304.071 102.906C304.439 103.565 304.914 104.071 305.497 104.424C306.095 104.761 306.724 104.93 307.383 104.93C308.058 104.93 308.686 104.761 309.269 104.424C309.852 104.087 310.319 103.596 310.672 102.952C311.04 102.293 311.224 101.526 311.224 100.652ZM321.913 107.207C320.916 107.207 320.019 107.031 319.222 106.678C318.44 106.31 317.819 105.819 317.359 105.206C316.899 104.577 316.654 103.88 316.623 103.113H319.337C319.383 103.65 319.636 104.102 320.096 104.47C320.571 104.823 321.162 104.999 321.867 104.999C322.603 104.999 323.17 104.861 323.569 104.585C323.983 104.294 324.19 103.926 324.19 103.481C324.19 103.006 323.96 102.653 323.5 102.423C323.055 102.193 322.342 101.94 321.361 101.664C320.41 101.403 319.636 101.15 319.038 100.905C318.44 100.66 317.919 100.284 317.474 99.778C317.045 99.272 316.83 98.605 316.83 97.777C316.83 97.1023 317.029 96.489 317.428 95.937C317.827 95.3697 318.394 94.925 319.13 94.603C319.881 94.281 320.74 94.12 321.706 94.12C323.147 94.12 324.305 94.488 325.179 95.224C326.068 95.9447 326.544 96.9337 326.605 98.191H323.983C323.937 97.6237 323.707 97.1713 323.293 96.834C322.879 96.4967 322.319 96.328 321.614 96.328C320.924 96.328 320.395 96.4583 320.027 96.719C319.659 96.9797 319.475 97.3247 319.475 97.754C319.475 98.0913 319.598 98.375 319.843 98.605C320.088 98.835 320.387 99.019 320.74 99.157C321.093 99.2797 321.614 99.4407 322.304 99.64C323.224 99.8853 323.975 100.138 324.558 100.399C325.156 100.644 325.67 101.012 326.099 101.503C326.528 101.994 326.751 102.645 326.766 103.458C326.766 104.179 326.567 104.823 326.168 105.39C325.769 105.957 325.202 106.402 324.466 106.724C323.745 107.046 322.894 107.207 321.913 107.207ZM334.199 107.207C333.202 107.207 332.305 107.031 331.508 106.678C330.726 106.31 330.105 105.819 329.645 105.206C329.185 104.577 328.94 103.88 328.909 103.113H331.623C331.669 103.65 331.922 104.102 332.382 104.47C332.857 104.823 333.448 104.999 334.153 104.999C334.889 104.999 335.456 104.861 335.855 104.585C336.269 104.294 336.476 103.926 336.476 103.481C336.476 103.006 336.246 102.653 335.786 102.423C335.341 102.193 334.628 101.94 333.647 101.664C332.696 101.403 331.922 101.15 331.324 100.905C330.726 100.66 330.205 100.284 329.76 99.778C329.331 99.272 329.116 98.605 329.116 97.777C329.116 97.1023 329.315 96.489 329.714 95.937C330.113 95.3697 330.68 94.925 331.416 94.603C332.167 94.281 333.026 94.12 333.992 94.12C335.433 94.12 336.591 94.488 337.465 95.224C338.354 95.9447 338.83 96.9337 338.891 98.191H336.269C336.223 97.6237 335.993 97.1713 335.579 96.834C335.165 96.4967 334.605 96.328 333.9 96.328C333.21 96.328 332.681 96.4583 332.313 96.719C331.945 96.9797 331.761 97.3247 331.761 97.754C331.761 98.0913 331.884 98.375 332.129 98.605C332.374 98.835 332.673 99.019 333.026 99.157C333.379 99.2797 333.9 99.4407 334.59 99.64C335.51 99.8853 336.261 100.138 336.844 100.399C337.442 100.644 337.956 101.012 338.385 101.503C338.814 101.994 339.037 102.645 339.052 103.458C339.052 104.179 338.853 104.823 338.454 105.39C338.055 105.957 337.488 106.402 336.752 106.724C336.031 107.046 335.18 107.207 334.199 107.207ZM353.5 100.353C353.5 100.828 353.469 101.258 353.408 101.641H343.725C343.802 102.653 344.177 103.466 344.852 104.079C345.527 104.692 346.355 104.999 347.336 104.999C348.747 104.999 349.743 104.409 350.326 103.228H353.155C352.772 104.393 352.074 105.352 351.062 106.103C350.065 106.839 348.823 107.207 347.336 107.207C346.125 107.207 345.036 106.939 344.07 106.402C343.119 105.85 342.368 105.083 341.816 104.102C341.279 103.105 341.011 101.955 341.011 100.652C341.011 99.3487 341.272 98.2063 341.793 97.225C342.33 96.2283 343.073 95.4617 344.024 94.925C344.99 94.3883 346.094 94.12 347.336 94.12C348.532 94.12 349.598 94.3807 350.533 94.902C351.468 95.4233 352.197 96.1593 352.718 97.11C353.239 98.0453 353.5 99.1263 353.5 100.353ZM350.763 99.525C350.748 98.559 350.403 97.7847 349.728 97.202C349.053 96.6193 348.218 96.328 347.221 96.328C346.316 96.328 345.542 96.6193 344.898 97.202C344.254 97.7693 343.871 98.5437 343.748 99.525H350.763ZM359.139 96.466V103.481C359.139 103.956 359.247 104.301 359.461 104.516C359.691 104.715 360.075 104.815 360.611 104.815H362.221V107H360.151C358.971 107 358.066 106.724 357.437 106.172C356.809 105.62 356.494 104.723 356.494 103.481V96.466H354.999V94.327H356.494V91.176H359.139V94.327H362.221V96.466H359.139ZM369.238 107.207C368.241 107.207 367.344 107.031 366.547 106.678C365.765 106.31 365.144 105.819 364.684 105.206C364.224 104.577 363.979 103.88 363.948 103.113H366.662C366.708 103.65 366.961 104.102 367.421 104.47C367.896 104.823 368.487 104.999 369.192 104.999C369.928 104.999 370.495 104.861 370.894 104.585C371.308 104.294 371.515 103.926 371.515 103.481C371.515 103.006 371.285 102.653 370.825 102.423C370.38 102.193 369.667 101.94 368.686 101.664C367.735 101.403 366.961 101.15 366.363 100.905C365.765 100.66 365.244 100.284 364.799 99.778C364.37 99.272 364.155 98.605 364.155 97.777C364.155 97.1023 364.354 96.489 364.753 95.937C365.152 95.3697 365.719 94.925 366.455 94.603C367.206 94.281 368.065 94.12 369.031 94.12C370.472 94.12 371.63 94.488 372.504 95.224C373.393 95.9447 373.869 96.9337 373.93 98.191H371.308C371.262 97.6237 371.032 97.1713 370.618 96.834C370.204 96.4967 369.644 96.328 368.939 96.328C368.249 96.328 367.72 96.4583 367.352 96.719C366.984 96.9797 366.8 97.3247 366.8 97.754C366.8 98.0913 366.923 98.375 367.168 98.605C367.413 98.835 367.712 99.019 368.065 99.157C368.418 99.2797 368.939 99.4407 369.629 99.64C370.549 99.8853 371.3 100.138 371.883 100.399C372.481 100.644 372.995 101.012 373.424 101.503C373.853 101.994 374.076 102.645 374.091 103.458C374.091 104.179 373.892 104.823 373.493 105.39C373.094 105.957 372.527 106.402 371.791 106.724C371.07 107.046 370.219 107.207 369.238 107.207Z" fill="#2D3062"/>
	<path d="M307.192 521.015C308.894 521.015 310.381 521.345 311.654 522.004C312.942 522.648 313.931 523.583 314.621 524.81C315.326 526.021 315.679 527.44 315.679 529.065C315.679 530.69 315.326 532.101 314.621 533.297C313.931 534.493 312.942 535.413 311.654 536.057C310.381 536.686 308.894 537 307.192 537H301.971V521.015H307.192ZM307.192 534.861C309.063 534.861 310.496 534.355 311.493 533.343C312.49 532.331 312.988 530.905 312.988 529.065C312.988 527.21 312.49 525.761 311.493 524.718C310.496 523.675 309.063 523.154 307.192 523.154H304.593V534.861H307.192ZM329.893 530.353C329.893 530.828 329.862 531.258 329.801 531.641H320.118C320.194 532.653 320.57 533.466 321.245 534.079C321.919 534.692 322.747 534.999 323.729 534.999C325.139 534.999 326.136 534.409 326.719 533.228H329.548C329.164 534.393 328.467 535.352 327.455 536.103C326.458 536.839 325.216 537.207 323.729 537.207C322.517 537.207 321.429 536.939 320.463 536.402C319.512 535.85 318.761 535.083 318.209 534.102C317.672 533.105 317.404 531.955 317.404 530.652C317.404 529.349 317.664 528.206 318.186 527.225C318.722 526.228 319.466 525.462 320.417 524.925C321.383 524.388 322.487 524.12 323.729 524.12C324.925 524.12 325.99 524.381 326.926 524.902C327.861 525.423 328.589 526.159 329.111 527.11C329.632 528.045 329.893 529.126 329.893 530.353ZM327.156 529.525C327.14 528.559 326.795 527.785 326.121 527.202C325.446 526.619 324.61 526.328 323.614 526.328C322.709 526.328 321.935 526.619 321.291 527.202C320.647 527.769 320.263 528.544 320.141 529.525H327.156ZM341.88 521.015V523.154H335.095V527.869H340.385V530.008H335.095V537H332.473V521.015H341.88ZM345.644 522.648C345.169 522.648 344.77 522.487 344.448 522.165C344.126 521.843 343.965 521.444 343.965 520.969C343.965 520.494 344.126 520.095 344.448 519.773C344.77 519.451 345.169 519.29 345.644 519.29C346.104 519.29 346.495 519.451 346.817 519.773C347.139 520.095 347.3 520.494 347.3 520.969C347.3 521.444 347.139 521.843 346.817 522.165C346.495 522.487 346.104 522.648 345.644 522.648ZM346.932 524.327V537H344.31V524.327H346.932ZM358.971 523.131V527.823H364.491V529.962H358.971V534.861H365.181V537H356.349V520.992H365.181V523.131H358.971ZM367.537 530.652C367.537 529.349 367.797 528.206 368.319 527.225C368.855 526.228 369.591 525.462 370.527 524.925C371.462 524.388 372.535 524.12 373.747 524.12C375.28 524.12 376.545 524.488 377.542 525.224C378.554 525.945 379.236 526.98 379.589 528.329H376.76C376.53 527.7 376.162 527.21 375.656 526.857C375.15 526.504 374.513 526.328 373.747 526.328C372.673 526.328 371.815 526.711 371.171 527.478C370.542 528.229 370.228 529.287 370.228 530.652C370.228 532.017 370.542 533.082 371.171 533.849C371.815 534.616 372.673 534.999 373.747 534.999C375.265 534.999 376.269 534.332 376.76 532.998H379.589C379.221 534.286 378.531 535.313 377.519 536.08C376.507 536.831 375.249 537.207 373.747 537.207C372.535 537.207 371.462 536.939 370.527 536.402C369.591 535.85 368.855 535.083 368.319 534.102C367.797 533.105 367.537 531.955 367.537 530.652ZM387.699 537.207C386.503 537.207 385.422 536.939 384.456 536.402C383.49 535.85 382.731 535.083 382.179 534.102C381.627 533.105 381.351 531.955 381.351 530.652C381.351 529.364 381.634 528.222 382.202 527.225C382.769 526.228 383.543 525.462 384.525 524.925C385.506 524.388 386.602 524.12 387.814 524.12C389.025 524.12 390.121 524.388 391.103 524.925C392.084 525.462 392.858 526.228 393.426 527.225C393.993 528.222 394.277 529.364 394.277 530.652C394.277 531.94 393.985 533.082 393.403 534.079C392.82 535.076 392.023 535.85 391.011 536.402C390.014 536.939 388.91 537.207 387.699 537.207ZM387.699 534.93C388.373 534.93 389.002 534.769 389.585 534.447C390.183 534.125 390.666 533.642 391.034 532.998C391.402 532.354 391.586 531.572 391.586 530.652C391.586 529.732 391.409 528.958 391.057 528.329C390.704 527.685 390.236 527.202 389.654 526.88C389.071 526.558 388.442 526.397 387.768 526.397C387.093 526.397 386.464 526.558 385.882 526.88C385.314 527.202 384.862 527.685 384.525 528.329C384.187 528.958 384.019 529.732 384.019 530.652C384.019 532.017 384.364 533.075 385.054 533.826C385.759 534.562 386.641 534.93 387.699 534.93ZM401.469 537.207C400.472 537.207 399.575 537.031 398.778 536.678C397.996 536.31 397.375 535.819 396.915 535.206C396.455 534.577 396.209 533.88 396.179 533.113H398.893C398.939 533.65 399.192 534.102 399.652 534.47C400.127 534.823 400.717 534.999 401.423 534.999C402.159 534.999 402.726 534.861 403.125 534.585C403.539 534.294 403.746 533.926 403.746 533.481C403.746 533.006 403.516 532.653 403.056 532.423C402.611 532.193 401.898 531.94 400.917 531.664C399.966 531.403 399.192 531.15 398.594 530.905C397.996 530.66 397.474 530.284 397.03 529.778C396.6 529.272 396.386 528.605 396.386 527.777C396.386 527.102 396.585 526.489 396.984 525.937C397.382 525.37 397.95 524.925 398.686 524.603C399.437 524.281 400.296 524.12 401.262 524.12C402.703 524.12 403.861 524.488 404.735 525.224C405.624 525.945 406.099 526.934 406.161 528.191H403.539C403.493 527.624 403.263 527.171 402.849 526.834C402.435 526.497 401.875 526.328 401.17 526.328C400.48 526.328 399.951 526.458 399.583 526.719C399.215 526.98 399.031 527.325 399.031 527.754C399.031 528.091 399.153 528.375 399.399 528.605C399.644 528.835 399.943 529.019 400.296 529.157C400.648 529.28 401.17 529.441 401.86 529.64C402.78 529.885 403.531 530.138 404.114 530.399C404.712 530.644 405.225 531.012 405.655 531.503C406.084 531.994 406.306 532.645 406.322 533.458C406.322 534.179 406.122 534.823 405.724 535.39C405.325 535.957 404.758 536.402 404.022 536.724C403.301 537.046 402.45 537.207 401.469 537.207ZM420.563 524.327L412.789 542.957H410.075L412.651 536.793L407.66 524.327H410.581L414.146 533.987L417.849 524.327H420.563ZM427.141 537.207C426.145 537.207 425.248 537.031 424.45 536.678C423.668 536.31 423.047 535.819 422.587 535.206C422.127 534.577 421.882 533.88 421.851 533.113H424.565C424.611 533.65 424.864 534.102 425.324 534.47C425.8 534.823 426.39 534.999 427.095 534.999C427.831 534.999 428.399 534.861 428.797 534.585C429.211 534.294 429.418 533.926 429.418 533.481C429.418 533.006 429.188 532.653 428.728 532.423C428.284 532.193 427.571 531.94 426.589 531.664C425.639 531.403 424.864 531.15 424.266 530.905C423.668 530.66 423.147 530.284 422.702 529.778C422.273 529.272 422.058 528.605 422.058 527.777C422.058 527.102 422.258 526.489 422.656 525.937C423.055 525.37 423.622 524.925 424.358 524.603C425.11 524.281 425.968 524.12 426.934 524.12C428.376 524.12 429.533 524.488 430.407 525.224C431.297 525.945 431.772 526.934 431.833 528.191H429.211C429.165 527.624 428.935 527.171 428.521 526.834C428.107 526.497 427.548 526.328 426.842 526.328C426.152 526.328 425.623 526.458 425.255 526.719C424.887 526.98 424.703 527.325 424.703 527.754C424.703 528.091 424.826 528.375 425.071 528.605C425.317 528.835 425.616 529.019 425.968 529.157C426.321 529.28 426.842 529.441 427.532 529.64C428.452 529.885 429.204 530.138 429.786 530.399C430.384 530.644 430.898 531.012 431.327 531.503C431.757 531.994 431.979 532.645 431.994 533.458C431.994 534.179 431.795 534.823 431.396 535.39C430.998 535.957 430.43 536.402 429.694 536.724C428.974 537.046 428.123 537.207 427.141 537.207ZM437.887 526.466V533.481C437.887 533.956 437.994 534.301 438.209 534.516C438.439 534.715 438.822 534.815 439.359 534.815H440.969V537H438.899C437.718 537 436.813 536.724 436.185 536.172C435.556 535.62 435.242 534.723 435.242 533.481V526.466H433.747V524.327H435.242V521.176H437.887V524.327H440.969V526.466H437.887ZM455 530.353C455 530.828 454.969 531.258 454.908 531.641H445.225C445.302 532.653 445.677 533.466 446.352 534.079C447.027 534.692 447.855 534.999 448.836 534.999C450.247 534.999 451.243 534.409 451.826 533.228H454.655C454.272 534.393 453.574 535.352 452.562 536.103C451.565 536.839 450.323 537.207 448.836 537.207C447.625 537.207 446.536 536.939 445.57 536.402C444.619 535.85 443.868 535.083 443.316 534.102C442.779 533.105 442.511 531.955 442.511 530.652C442.511 529.349 442.772 528.206 443.293 527.225C443.83 526.228 444.573 525.462 445.524 524.925C446.49 524.388 447.594 524.12 448.836 524.12C450.032 524.12 451.098 524.381 452.033 524.902C452.968 525.423 453.697 526.159 454.218 527.11C454.739 528.045 455 529.126 455 530.353ZM452.263 529.525C452.248 528.559 451.903 527.785 451.228 527.202C450.553 526.619 449.718 526.328 448.721 526.328C447.816 526.328 447.042 526.619 446.398 527.202C445.754 527.769 445.371 528.544 445.248 529.525H452.263ZM472.921 524.12C473.918 524.12 474.807 524.327 475.589 524.741C476.387 525.155 477.008 525.768 477.452 526.581C477.912 527.394 478.142 528.375 478.142 529.525V537H475.543V529.916C475.543 528.781 475.26 527.915 474.692 527.317C474.125 526.704 473.351 526.397 472.369 526.397C471.388 526.397 470.606 526.704 470.023 527.317C469.456 527.915 469.172 528.781 469.172 529.916V537H466.573V529.916C466.573 528.781 466.29 527.915 465.722 527.317C465.155 526.704 464.381 526.397 463.399 526.397C462.418 526.397 461.636 526.704 461.053 527.317C460.486 527.915 460.202 528.781 460.202 529.916V537H457.58V524.327H460.202V525.776C460.632 525.255 461.176 524.848 461.835 524.557C462.495 524.266 463.2 524.12 463.951 524.12C464.963 524.12 465.868 524.335 466.665 524.764C467.463 525.193 468.076 525.814 468.505 526.627C468.889 525.86 469.487 525.255 470.299 524.81C471.112 524.35 471.986 524.12 472.921 524.12Z" fill="#2D3062"/>
	<path d="M241 70.8038L250 76L241 81.1962L241 70.8038Z" fill="white" stroke="#2EAE69" stroke-width="6"/>
	<path d="M241 100.804L250 106L241 111.196L241 100.804Z" fill="white" stroke="#2EAE69" stroke-width="6"/>
	<path d="M241 130.804L250 136L241 141.196L241 130.804Z" fill="white" stroke="#2EAE69" stroke-width="6"/>
	<path d="M200 69.0718L212 76L200 82.9282L200 69.0718Z" fill="white" stroke="#2EAE69" stroke-width="4"/>
	<path d="M200 99.0718L212 106L200 112.928L200 99.0718Z" fill="white" stroke="#2EAE69" stroke-width="4"/>
	<path d="M200 129.072L212 136L200 142.928L200 129.072Z" fill="white" stroke="#2EAE69" stroke-width="4"/>
	<path d="M159.5 98.4558L173 106.25L159.5 114.044L159.5 98.4558Z" fill="white" stroke="#2EAE69" stroke-width="3"/>
	<path d="M159.5 128.206L173 136L159.5 143.794L159.5 128.206Z" fill="white" stroke="#2EAE69" stroke-width="3"/>
	<path d="M119 127.34L134 136L119 144.66L119 127.34Z" fill="white" stroke="#2EAE69" stroke-width="2"/>
	<path d="M145.97 366.85L139.14 373.69L141.15 375.7L150 366.85L141.15 358L139.14 360.02L145.97 366.85Z" fill="#159CAE"/>
	<path d="M127.11 366.85L120.28 373.69L122.29 375.7L131.14 366.85L122.29 358L120.28 360.02L127.11 366.85Z" fill="#159CAE"/>
	<path fill-rule="evenodd" clip-rule="evenodd" d="M94.4199 373.69L101.25 366.85L94.4199 360.02L96.4299 358L103.35 364.92L110.27 358L112.28 360.01L105.45 366.85L112.28 373.68L110.27 375.7L103.35 368.78L96.4299 375.7L94.4199 373.69Z" fill="#FF4D00"/>
	<path d="M82.3899 366.85L75.5599 373.69L77.5699 375.7L86.4199 366.85L77.5699 358L75.5599 360.02L82.3899 366.85Z" fill="#159CAE"/>
	<path d="M63.5305 366.85L56.7005 373.69L58.7105 375.7L67.5605 366.85L58.7105 358L56.7005 360.02L63.5305 366.85Z" fill="#159CAE"/>
	<path d="M44.6702 366.85L37.8402 373.69L39.8502 375.7L48.7002 366.85L39.8502 358L37.8402 360.02L44.6702 366.85Z" fill="#159CAE"/>
	<path d="M25.8108 366.85L18.9808 373.69L20.9908 375.7L29.8408 366.85L20.9908 358L18.9808 360.02L25.8108 366.85Z" fill="#159CAE"/>
	<path d="M6.96047 366.85L0.120468 373.69L2.14047 375.7L10.9805 366.85L2.14047 358L0.12047 360.02L6.96047 366.85Z" fill="#159CAE"/>
	<path d="M245.87 534.25L229.43 550.61L212.98 534.25L196.54 550.61L180.1 534.25L165.6 548.68L151.09 534.25L134.65 550.61L118.2 534.25L101.76 550.61L85.32 534.25L69 550.49L70.82 552.31L85.32 537.88L101.76 554.24L118.2 537.88L134.65 554.24L151.09 537.88L165.6 552.32L180.1 537.88L196.54 554.24L212.98 537.88L229.43 554.24L245.87 537.88L260.38 552.31L262.19 550.49L245.87 534.25Z" fill="#0B315E"/>
	<path d="M245.82 505L229.38 521.36L212.93 505L196.49 521.36L180.05 505L167.01 517.98L167 521.62L180.05 508.63L196.49 524.99L212.93 508.63L229.38 524.99L245.82 508.63L260.33 523.06L262.14 521.23L245.82 505Z" fill="#FF9D00"/>
	<path d="M549.643 269.768C533.821 253.897 533.861 228.215 549.731 212.393C565.602 196.571 591.284 196.611 607.106 212.481L549.643 269.768Z" fill="#2D3062"/>
	<path d="M631.479 194.439C647.301 210.309 647.261 235.991 631.391 251.813C615.52 267.635 589.838 267.596 574.016 251.725L631.479 194.439Z" fill="#159CAE"/>
	<path d="M290 408.75C355.722 408.75 409 355.472 409 289.75C409 224.028 355.722 170.75 290 170.75C224.278 170.75 171 224.028 171 289.75C171 355.472 224.278 408.75 290 408.75Z" fill="#2D3062"/>
	<path d="M266.993 285.286H257.561L256.049 289.75H249.605L258.749 264.478H265.877L275.021 289.75H268.505L266.993 285.286ZM265.409 280.534L262.277 271.282L259.181 280.534H265.409ZM300.664 272.614C300.664 274.078 300.328 275.422 299.656 276.646C298.984 277.846 297.952 278.818 296.56 279.562C295.168 280.306 293.44 280.678 291.376 280.678H287.56V289.75H281.404V264.478H291.376C293.392 264.478 295.096 264.826 296.488 265.522C297.88 266.218 298.924 267.178 299.62 268.402C300.316 269.626 300.664 271.03 300.664 272.614ZM290.908 275.782C292.084 275.782 292.96 275.506 293.536 274.954C294.112 274.402 294.4 273.622 294.4 272.614C294.4 271.606 294.112 270.826 293.536 270.274C292.96 269.722 292.084 269.446 290.908 269.446H287.56V275.782H290.908ZM322.949 289.75L317.801 282.01L313.265 289.75H306.281L314.381 276.898L306.101 264.478H313.265L318.341 272.11L322.805 264.478H329.789L321.761 277.222L330.113 289.75H322.949ZM246.706 309.649C247.023 309.155 247.46 308.756 248.017 308.452C248.575 308.148 249.227 307.996 249.974 307.996C250.848 307.996 251.64 308.218 252.349 308.661C253.059 309.104 253.616 309.738 254.021 310.561C254.439 311.384 254.648 312.341 254.648 313.43C254.648 314.519 254.439 315.482 254.021 316.318C253.616 317.141 253.059 317.781 252.349 318.237C251.64 318.68 250.848 318.902 249.974 318.902C249.24 318.902 248.587 318.75 248.017 318.446C247.46 318.142 247.023 317.749 246.706 317.268V323.804H243.457V308.148H246.706V309.649ZM251.342 313.43C251.342 312.619 251.114 311.986 250.658 311.53C250.215 311.061 249.664 310.827 249.005 310.827C248.359 310.827 247.808 311.061 247.352 311.53C246.909 311.999 246.687 312.638 246.687 313.449C246.687 314.26 246.909 314.899 247.352 315.368C247.808 315.837 248.359 316.071 249.005 316.071C249.651 316.071 250.202 315.837 250.658 315.368C251.114 314.887 251.342 314.241 251.342 313.43ZM261.502 309.915C261.882 309.332 262.357 308.876 262.927 308.547C263.497 308.205 264.13 308.034 264.827 308.034V311.473H263.934C263.123 311.473 262.515 311.65 262.11 312.005C261.704 312.347 261.502 312.955 261.502 313.829V318.75H258.253V308.148H261.502V309.915ZM273.106 318.902C272.067 318.902 271.13 318.68 270.294 318.237C269.47 317.794 268.818 317.16 268.337 316.337C267.868 315.514 267.634 314.551 267.634 313.449C267.634 312.36 267.874 311.403 268.356 310.58C268.837 309.744 269.496 309.104 270.332 308.661C271.168 308.218 272.105 307.996 273.144 307.996C274.182 307.996 275.12 308.218 275.956 308.661C276.792 309.104 277.45 309.744 277.932 310.58C278.413 311.403 278.654 312.36 278.654 313.449C278.654 314.538 278.407 315.501 277.913 316.337C277.431 317.16 276.766 317.794 275.918 318.237C275.082 318.68 274.144 318.902 273.106 318.902ZM273.106 316.09C273.726 316.09 274.252 315.862 274.683 315.406C275.126 314.95 275.348 314.298 275.348 313.449C275.348 312.6 275.132 311.948 274.702 311.492C274.284 311.036 273.764 310.808 273.144 310.808C272.51 310.808 271.985 311.036 271.567 311.492C271.149 311.935 270.94 312.588 270.94 313.449C270.94 314.298 271.142 314.95 271.548 315.406C271.966 315.862 272.485 316.09 273.106 316.09ZM288.186 315.995V318.75H286.533C285.355 318.75 284.437 318.465 283.778 317.895C283.12 317.312 282.79 316.369 282.79 315.064V310.846H281.498V308.148H282.79V305.564H286.039V308.148H288.167V310.846H286.039V315.102C286.039 315.419 286.115 315.647 286.267 315.786C286.419 315.925 286.673 315.995 287.027 315.995H288.186ZM296.722 318.902C295.683 318.902 294.746 318.68 293.91 318.237C293.087 317.794 292.434 317.16 291.953 316.337C291.484 315.514 291.25 314.551 291.25 313.449C291.25 312.36 291.491 311.403 291.972 310.58C292.453 309.744 293.112 309.104 293.948 308.661C294.784 308.218 295.721 307.996 296.76 307.996C297.799 307.996 298.736 308.218 299.572 308.661C300.408 309.104 301.067 309.744 301.548 310.58C302.029 311.403 302.27 312.36 302.27 313.449C302.27 314.538 302.023 315.501 301.529 316.337C301.048 317.16 300.383 317.794 299.534 318.237C298.698 318.68 297.761 318.902 296.722 318.902ZM296.722 316.09C297.343 316.09 297.868 315.862 298.299 315.406C298.742 314.95 298.964 314.298 298.964 313.449C298.964 312.6 298.749 311.948 298.318 311.492C297.9 311.036 297.381 310.808 296.76 310.808C296.127 310.808 295.601 311.036 295.183 311.492C294.765 311.935 294.556 312.588 294.556 313.449C294.556 314.298 294.759 314.95 295.164 315.406C295.582 315.862 296.101 316.09 296.722 316.09ZM305.248 313.449C305.248 312.347 305.469 311.384 305.913 310.561C306.369 309.738 306.996 309.104 307.794 308.661C308.604 308.218 309.529 307.996 310.568 307.996C311.898 307.996 313.006 308.344 313.893 309.041C314.792 309.738 315.381 310.719 315.66 311.986H312.202C311.91 311.175 311.347 310.77 310.511 310.77C309.915 310.77 309.44 311.004 309.086 311.473C308.731 311.929 308.554 312.588 308.554 313.449C308.554 314.31 308.731 314.975 309.086 315.444C309.44 315.9 309.915 316.128 310.511 316.128C311.347 316.128 311.91 315.723 312.202 314.912H315.66C315.381 316.153 314.792 317.129 313.893 317.838C312.993 318.547 311.885 318.902 310.568 318.902C309.529 318.902 308.604 318.68 307.794 318.237C306.996 317.794 306.369 317.16 305.913 316.337C305.469 315.514 305.248 314.551 305.248 313.449ZM324.124 318.902C323.085 318.902 322.148 318.68 321.312 318.237C320.488 317.794 319.836 317.16 319.355 316.337C318.886 315.514 318.652 314.551 318.652 313.449C318.652 312.36 318.892 311.403 319.374 310.58C319.855 309.744 320.514 309.104 321.35 308.661C322.186 308.218 323.123 307.996 324.162 307.996C325.2 307.996 326.138 308.218 326.974 308.661C327.81 309.104 328.468 309.744 328.95 310.58C329.431 311.403 329.672 312.36 329.672 313.449C329.672 314.538 329.425 315.501 328.931 316.337C328.449 317.16 327.784 317.794 326.936 318.237C326.1 318.68 325.162 318.902 324.124 318.902ZM324.124 316.09C324.744 316.09 325.27 315.862 325.701 315.406C326.144 314.95 326.366 314.298 326.366 313.449C326.366 312.6 326.15 311.948 325.72 311.492C325.302 311.036 324.782 310.808 324.162 310.808C323.528 310.808 323.003 311.036 322.585 311.492C322.167 311.935 321.958 312.588 321.958 313.449C321.958 314.298 322.16 314.95 322.566 315.406C322.984 315.862 323.503 316.09 324.124 316.09ZM336.544 304.69V318.75H333.295V304.69H336.544Z" fill="white"/>
	<path d="M282 404L282 527L284 527L284 404L282 404Z" fill="#2D3062"/>
	<path d="M284 80C284 79.4477 283.552 79 283 79C282.448 79 282 79.4477 282 80L284 80ZM282.293 250.707C282.683 251.098 283.317 251.098 283.707 250.707L290.071 244.343C290.462 243.953 290.462 243.319 290.071 242.929C289.681 242.538 289.047 242.538 288.657 242.929L283 248.586L277.343 242.929C276.953 242.538 276.319 242.538 275.929 242.929C275.538 243.319 275.538 243.953 275.929 244.343L282.293 250.707ZM282 80L282 250L284 250L284 80L282 80Z" fill="#2D3062"/>
	<path d="M284 172C284 171.448 283.552 171 283 171C282.448 171 282 171.448 282 172L284 172ZM282.293 250.707C282.683 251.098 283.317 251.098 283.707 250.707L290.071 244.343C290.462 243.953 290.462 243.319 290.071 242.929C289.681 242.538 289.047 242.538 288.657 242.929L283 248.586L277.343 242.929C276.953 242.538 276.319 242.538 275.929 242.929C275.538 243.319 275.538 243.953 275.929 244.343L282.293 250.707ZM282 172L282 250L284 250L284 172L282 172Z" fill="#F5F5F5"/>
	<path d="M284 330C284 329.448 283.552 329 283 329C282.448 329 282 329.448 282 330L284 330ZM282.293 408.707C282.683 409.098 283.317 409.098 283.707 408.707L290.071 402.343C290.462 401.953 290.462 401.319 290.071 400.929C289.681 400.538 289.047 400.538 288.657 400.929L283 406.586L277.343 400.929C276.953 400.538 276.319 400.538 275.929 400.929C275.538 401.319 275.538 401.953 275.929 402.343L282.293 408.707ZM282 330L282 408L284 408L284 330L282 330Z" fill="#F5F5F5"/>
	<circle cx="283" cy="76" r="4" stroke="#2D3062" stroke-width="2"/>
	<circle cx="283" cy="530" r="4" stroke="#2D3062" stroke-width="2"/>
</svg>
