<svg width="890" height="680" viewBox="0 0 890 680" fill="none" xmlns="http://www.w3.org/2000/svg">
<g clip-path="url(#clip0)">
<path d="M2046.6 -88.765C1938.2 -88.9688 1830.19 -154.567 1726.5 -123.021C1574.62 -76.8229 1504.55 156.986 1346.95 137.91C1257.26 127.059 1202.59 34.2546 1174.5 -51.6073C1146.4 -137.469 1126.47 -233.751 1056.62 -291.016C963.654 -367.226 813.664 -346.495 729.19 -432.009C667.678 -494.286 662.558 -593.781 682.294 -679.055C702.031 -764.33 742.283 -844.053 759.046 -929.963C787.044 -1073.49 747.691 -1224.09 777.967 -1367.15C814.647 -1540.44 960.884 -1685.38 1134.5 -1720.5C1267.59 -1747.43 1404.66 -1714.18 1536.36 -1681.1C1635.38 -1656.23 1734.4 -1631.38 1833.47 -1606.5C1947.18 -1577.95 2064.84 -1527.53 2152.38 -1447.82C2199.11 -1405.28 2240.26 -1354.88 2260.38 -1293.91C2291.21 -1199.67 2256.2 -1170.71 2324.29 -1098.74C2375.55 -1044.55 2422.74 -1036.86 2437.76 -953.056C2458.97 -834.76 2380.74 -708.215 2354.77 -596.119C2309.33 -399.947 2332.43 -88.2374 2046.6 -88.765Z" stroke="#6A728E" stroke-width="0.2737" stroke-miterlimit="10"/>
<path d="M2033.61 -75.7798C1925.22 -75.9836 1817.21 -141.582 1713.51 -110.036C1561.64 -63.8374 1491.57 169.972 1333.96 150.895C1244.27 140.044 1189.61 47.2398 1161.51 -38.6221C1133.42 -124.484 1113.5 -220.765 1043.63 -278.031C950.669 -354.24 800.678 -333.509 716.204 -419.024C654.692 -481.301 649.572 -580.796 669.309 -666.07C689.045 -751.344 729.298 -831.067 746.061 -916.977C774.059 -1060.5 734.706 -1211.11 764.982 -1354.16C801.649 -1527.45 947.887 -1672.38 1121.5 -1707.5C1254.6 -1734.43 1391.66 -1701.19 1523.36 -1668.1C1622.38 -1643.24 1721.4 -1618.38 1820.47 -1593.5C1934.19 -1564.95 2051.84 -1514.53 2139.38 -1434.82C2186.11 -1392.28 2227.26 -1341.89 2247.38 -1280.92C2278.21 -1186.67 2243.2 -1157.72 2311.29 -1085.74C2362.55 -1031.56 2409.75 -1023.86 2424.76 -940.058C2445.97 -821.763 2367.74 -695.218 2341.77 -583.122C2296.34 -386.962 2319.43 -75.2522 2033.61 -75.7798Z" stroke="#6A728E" stroke-width="0.2701" stroke-miterlimit="10"/>
<path d="M2020.63 -62.7824C1912.23 -62.9862 1804.22 -128.585 1700.53 -97.0384C1548.65 -50.8401 1478.58 182.969 1320.97 163.893C1231.28 153.041 1176.62 60.2372 1148.53 -25.6247C1120.43 -111.487 1100.5 -207.768 1030.65 -265.033C937.683 -341.243 787.692 -320.512 703.218 -406.026C641.706 -468.303 636.586 -567.798 656.323 -653.073C676.059 -738.347 716.312 -818.07 733.075 -903.98C761.073 -1047.5 721.719 -1198.11 751.996 -1341.17C788.675 -1514.46 934.913 -1659.4 1108.52 -1694.52C1241.62 -1721.45 1378.69 -1688.2 1510.39 -1655.12C1609.41 -1630.25 1708.43 -1605.4 1807.49 -1580.52C1921.21 -1551.97 2038.87 -1501.55 2126.41 -1421.84C2173.14 -1379.3 2214.29 -1328.9 2234.41 -1267.93C2265.24 -1173.69 2230.22 -1144.73 2298.32 -1072.75C2349.58 -1018.57 2396.77 -1010.87 2411.79 -927.073C2433 -808.777 2354.77 -682.233 2328.8 -570.136C2283.34 -373.964 2306.45 -62.2668 2020.63 -62.7824Z" stroke="#6A728E" stroke-width="0.2665" stroke-miterlimit="10"/>
<path d="M2007.63 -49.7971C1899.23 -50.0009 1791.22 -115.6 1687.53 -84.0533C1535.65 -37.855 1465.58 195.954 1307.98 176.878C1218.29 166.027 1163.62 73.2225 1135.53 -12.6394C1107.43 -98.5014 1087.52 -194.783 1017.65 -252.048C924.684 -328.258 774.694 -307.527 690.22 -393.041C628.708 -455.318 623.588 -554.813 643.325 -640.087C663.061 -725.362 703.314 -805.085 720.077 -890.995C748.075 -1034.52 708.721 -1185.13 738.998 -1328.18C775.677 -1501.48 921.915 -1646.41 1095.53 -1681.53C1228.62 -1708.46 1365.69 -1675.2 1497.39 -1642.13C1596.41 -1617.27 1695.43 -1592.41 1794.5 -1567.53C1908.21 -1538.98 2025.87 -1488.56 2113.41 -1408.85C2160.14 -1366.31 2201.29 -1315.92 2221.41 -1254.95C2252.24 -1160.7 2217.23 -1131.75 2285.32 -1059.77C2336.58 -1005.59 2383.77 -997.887 2398.79 -914.088C2420 -795.792 2341.77 -669.248 2315.8 -557.151C2270.36 -360.979 2293.46 -49.2695 2007.63 -49.7971Z" stroke="#6A728E" stroke-width="0.263" stroke-miterlimit="10"/>
<path d="M1994.64 -36.8114C1886.25 -37.0153 1778.24 -102.614 1674.54 -71.0674C1522.67 -24.8691 1452.6 208.94 1294.99 189.864C1205.3 179.012 1150.64 86.2082 1122.54 0.346225C1094.45 -85.5157 1074.53 -181.797 1004.66 -239.062C911.699 -315.272 761.708 -294.541 677.235 -380.055C615.723 -442.332 610.603 -541.827 630.339 -627.102C650.076 -712.376 690.328 -792.099 707.091 -878.009C735.089 -1021.53 695.736 -1172.14 726.012 -1315.2C762.68 -1488.48 908.917 -1633.42 1082.53 -1668.55C1215.63 -1695.48 1352.69 -1662.23 1484.4 -1629.15C1583.41 -1604.28 1682.43 -1579.42 1781.5 -1554.54C1895.22 -1526 2012.87 -1475.58 2100.41 -1395.87C2147.14 -1353.32 2188.29 -1302.93 2208.41 -1241.96C2239.24 -1147.72 2204.23 -1118.76 2272.32 -1046.78C2323.58 -992.599 2370.78 -984.902 2385.79 -901.102C2407 -782.807 2328.77 -656.262 2302.8 -544.165C2257.37 -347.993 2280.46 -36.2839 1994.64 -36.8114Z" stroke="#6A728E" stroke-width="0.2594" stroke-miterlimit="10"/>
<path d="M1981.66 -23.8258C1873.26 -24.0296 1765.25 -89.6282 1661.56 -58.082C1509.68 -11.8837 1439.61 221.926 1282 202.849C1192.32 191.998 1137.65 99.1938 1109.56 13.3319C1081.46 -72.5301 1061.53 -168.812 991.676 -226.077C898.713 -302.287 748.722 -281.556 664.248 -367.07C602.736 -429.347 597.616 -528.842 617.353 -614.116C637.089 -699.39 677.342 -779.113 694.105 -865.023C722.103 -1008.55 682.75 -1159.16 713.026 -1302.21C749.705 -1475.51 895.943 -1620.44 1069.56 -1655.56C1202.65 -1682.49 1339.72 -1649.24 1471.42 -1616.16C1570.44 -1591.29 1669.46 -1566.44 1768.52 -1541.56C1882.24 -1513.01 1999.9 -1462.59 2087.44 -1382.88C2134.17 -1340.34 2175.32 -1289.94 2195.44 -1228.97C2226.27 -1134.73 2191.25 -1105.77 2259.35 -1033.8C2310.61 -979.614 2357.79 -971.916 2372.82 -888.117C2394.03 -769.821 2315.8 -643.276 2289.83 -531.18C2244.38 -334.996 2267.48 -23.2982 1981.66 -23.8258Z" stroke="#6A728E" stroke-width="0.2558" stroke-miterlimit="10"/>
<path d="M1968.66 -10.8288C1860.27 -11.0327 1752.25 -76.6313 1648.56 -45.085C1496.69 1.11329 1426.61 234.923 1269.01 215.846C1179.32 204.995 1124.65 112.191 1096.56 26.3288C1068.46 -59.5331 1048.55 -155.815 978.679 -213.08C885.716 -289.29 735.725 -268.559 651.251 -354.073C589.739 -416.35 584.619 -515.845 604.356 -601.119C624.092 -686.394 664.345 -766.116 681.108 -852.026C709.106 -995.549 669.753 -1146.16 700.029 -1289.21C736.708 -1462.51 882.946 -1607.45 1056.56 -1642.57C1189.65 -1669.5 1326.72 -1636.23 1458.42 -1603.17C1557.44 -1578.3 1656.46 -1553.44 1755.53 -1528.56C1869.25 -1500.01 1986.9 -1449.59 2074.44 -1369.88C2121.17 -1327.34 2162.32 -1276.95 2182.44 -1215.98C2213.27 -1121.73 2178.26 -1092.78 2246.35 -1020.8C2297.61 -966.617 2344.81 -958.919 2359.82 -875.12C2381.03 -756.824 2302.8 -630.279 2276.83 -518.183C2231.39 -322.011 2254.49 -10.3133 1968.66 -10.8288Z" stroke="#6A728E" stroke-width="0.2522" stroke-miterlimit="10"/>
<path d="M1955.67 2.15651C1847.28 1.95268 1739.27 -63.6457 1635.57 -32.0995C1483.7 14.0988 1413.63 247.908 1256.02 228.831C1166.33 217.98 1111.67 125.176 1083.57 39.3142C1055.48 -46.5478 1035.55 -142.829 965.693 -200.094C872.729 -276.304 722.739 -255.573 638.265 -341.087C576.753 -403.365 571.633 -502.859 591.369 -588.134C611.106 -673.408 651.359 -753.131 668.121 -839.041C696.12 -982.564 656.766 -1133.17 687.043 -1276.23C723.722 -1449.52 869.959 -1594.46 1043.57 -1629.58C1176.67 -1656.51 1313.73 -1623.25 1445.44 -1590.18C1544.46 -1565.31 1643.47 -1540.46 1742.54 -1515.58C1856.26 -1487.03 1973.91 -1436.61 2061.46 -1356.9C2108.18 -1314.36 2149.33 -1263.96 2169.45 -1202.99C2200.28 -1108.75 2165.27 -1079.79 2233.36 -1007.82C2284.62 -953.631 2331.82 -945.934 2346.83 -862.134C2368.04 -743.839 2289.82 -617.294 2263.84 -505.197C2218.4 -309.025 2241.49 2.68408 1955.67 2.15651Z" stroke="#6A728E" stroke-width="0.2486" stroke-miterlimit="10"/>
<path d="M1942.69 15.1422C1834.29 14.9384 1726.28 -50.6602 1622.59 -19.1139C1470.71 27.0844 1400.64 260.894 1243.04 241.817C1153.35 230.966 1098.68 138.162 1070.59 52.2999C1042.49 -33.562 1022.58 -129.843 952.707 -187.109C859.744 -263.319 709.753 -242.587 625.279 -328.102C563.768 -390.379 558.648 -489.874 578.384 -575.148C598.121 -660.422 638.373 -740.145 655.136 -826.055C683.134 -969.578 643.781 -1120.19 674.057 -1263.24C710.737 -1436.54 856.974 -1581.47 1030.59 -1616.59C1163.68 -1643.52 1300.75 -1610.26 1432.45 -1577.19C1531.47 -1552.33 1630.49 -1527.47 1729.56 -1502.59C1843.27 -1474.04 1960.93 -1423.62 2048.47 -1343.91C2095.2 -1301.37 2136.35 -1250.98 2156.47 -1190.01C2187.3 -1095.76 2152.28 -1066.81 2220.38 -994.83C2271.64 -940.646 2318.83 -932.948 2333.85 -849.148C2355.06 -730.853 2276.83 -604.308 2250.86 -492.212C2205.42 -296.04 2228.51 15.6698 1942.69 15.1422Z" stroke="#6A728E" stroke-width="0.2451" stroke-miterlimit="10"/>
<path d="M1929.7 28.139C1821.31 27.9352 1713.3 -37.6634 1609.6 -6.11711C1457.73 40.0812 1387.65 273.89 1230.05 254.814C1140.36 243.963 1085.69 151.159 1057.6 65.2967C1029.51 -20.5652 1009.58 -116.847 939.721 -174.112C846.758 -250.322 696.767 -229.591 612.293 -315.105C550.781 -377.382 545.661 -476.877 565.398 -562.151C585.134 -647.425 625.387 -727.148 642.15 -813.058C670.148 -956.581 630.795 -1107.19 661.071 -1250.25C697.75 -1423.54 843.988 -1568.48 1017.6 -1603.6C1150.7 -1630.53 1287.76 -1597.27 1419.47 -1564.2C1518.48 -1539.33 1617.5 -1514.47 1716.57 -1489.59C1830.29 -1461.05 1947.94 -1410.63 2035.48 -1330.92C2082.21 -1288.37 2123.36 -1237.98 2143.48 -1177.01C2174.31 -1082.77 2139.3 -1053.81 2207.39 -981.833C2258.65 -927.649 2305.85 -919.951 2320.86 -836.152C2342.07 -717.856 2263.84 -591.311 2237.87 -479.215C2192.42 -283.043 2215.52 28.6546 1929.7 28.139Z" stroke="#6A728E" stroke-width="0.2415" stroke-miterlimit="10"/>
<path d="M1916.7 41.1246C1808.31 40.9208 1700.3 -24.6776 1596.6 6.86866C1444.73 53.067 1374.66 286.876 1217.05 267.8C1127.36 256.948 1072.7 164.144 1044.6 78.2823C1016.51 -7.57962 996.592 -103.861 926.723 -161.126C833.76 -237.336 683.769 -216.605 599.295 -302.119C537.783 -364.396 532.663 -463.891 552.4 -549.165C572.136 -634.44 612.389 -714.163 629.152 -800.073C657.15 -943.596 617.797 -1094.2 648.073 -1237.26C684.752 -1410.55 830.99 -1555.49 1004.6 -1590.61C1137.7 -1617.54 1274.76 -1584.28 1406.47 -1551.21C1505.49 -1526.34 1604.5 -1501.49 1703.57 -1476.61C1817.29 -1448.06 1934.94 -1397.64 2022.49 -1317.93C2069.21 -1275.39 2110.36 -1224.99 2130.49 -1164.02C2161.31 -1069.78 2126.3 -1040.82 2194.4 -968.847C2245.66 -914.663 2292.85 -906.966 2307.86 -823.166C2329.07 -704.87 2250.85 -578.326 2224.88 -466.229C2179.43 -270.057 2202.54 41.6522 1916.7 41.1246Z" stroke="#6A728E" stroke-width="0.2379" stroke-miterlimit="10"/>
<path d="M1903.72 54.1104C1795.32 53.9065 1687.31 -11.6921 1583.62 19.8542C1431.74 66.0525 1361.67 299.862 1204.07 280.785C1114.38 269.934 1059.71 177.13 1031.62 91.268C1003.52 5.4061 983.595 -90.8754 913.738 -148.141C820.774 -224.35 670.784 -203.619 586.31 -289.134C524.798 -351.411 519.678 -450.905 539.414 -536.18C559.151 -621.454 599.403 -701.177 616.166 -787.087C644.164 -930.61 604.811 -1081.22 635.088 -1224.27C671.767 -1397.57 818.004 -1542.51 991.617 -1577.63C1124.71 -1604.56 1261.78 -1571.31 1393.48 -1538.23C1492.5 -1513.36 1591.52 -1488.5 1690.59 -1463.62C1804.3 -1435.07 1921.96 -1384.66 2009.5 -1304.94C2056.23 -1262.4 2097.38 -1212.01 2117.5 -1151.04C2148.33 -1056.79 2113.32 -1027.84 2181.41 -955.861C2232.67 -901.678 2279.86 -893.98 2294.88 -810.18C2316.09 -691.885 2237.86 -565.34 2211.89 -453.244C2166.45 -257.072 2189.54 54.6379 1903.72 54.1104Z" stroke="#6A728E" stroke-width="0.2343" stroke-miterlimit="10"/>
<path d="M1890.73 67.1074C1782.34 66.9036 1674.33 1.30502 1570.63 32.8513C1418.76 79.0496 1348.68 312.859 1191.08 293.782C1101.39 282.931 1046.73 190.127 1018.63 104.265C990.537 18.4032 970.621 -77.8784 900.751 -135.144C807.788 -211.353 657.797 -190.622 573.323 -276.137C511.812 -338.414 506.692 -437.908 526.428 -523.183C546.165 -608.457 586.417 -688.18 603.18 -774.09C631.178 -917.613 591.825 -1068.22 622.101 -1211.28C658.781 -1384.57 805.018 -1529.51 978.63 -1564.63C1111.73 -1591.56 1248.79 -1558.3 1380.5 -1525.23C1479.51 -1500.36 1578.53 -1475.51 1677.6 -1450.63C1791.32 -1422.08 1908.97 -1371.66 1996.51 -1291.95C2043.24 -1249.41 2084.39 -1199.01 2104.51 -1138.04C2135.34 -1043.8 2100.33 -1014.84 2168.42 -942.864C2219.68 -888.68 2266.88 -880.983 2281.89 -797.183C2303.1 -678.888 2224.88 -552.343 2198.9 -440.247C2153.45 -244.075 2176.55 67.623 1890.73 67.1074Z" stroke="#6A728E" stroke-width="0.2308" stroke-miterlimit="10"/>
<path d="M1877.74 80.093C1769.34 79.8892 1661.33 14.2908 1557.63 45.8371C1405.76 92.0353 1335.69 325.844 1178.08 306.768C1088.39 295.917 1033.73 203.113 1005.63 117.251C977.54 31.3888 957.623 -64.8926 887.754 -122.158C794.791 -198.368 644.8 -177.637 560.326 -263.151C498.814 -325.428 493.694 -424.923 513.431 -510.197C533.168 -595.472 573.42 -675.195 590.183 -761.104C618.181 -904.627 578.828 -1055.24 609.104 -1198.29C645.783 -1371.59 792.021 -1516.52 965.633 -1551.64C1098.73 -1578.57 1235.79 -1545.31 1367.5 -1512.24C1466.52 -1487.38 1565.54 -1462.52 1664.6 -1437.64C1778.32 -1409.09 1895.97 -1358.67 1983.52 -1278.96C2030.24 -1236.42 2071.4 -1186.03 2091.52 -1125.06C2122.34 -1030.81 2087.33 -1001.86 2155.43 -929.879C2206.69 -875.695 2253.88 -867.997 2268.89 -784.198C2290.1 -665.902 2211.88 -539.357 2185.91 -427.261C2140.46 -231.089 2163.57 80.6086 1877.74 80.093Z" stroke="#6A728E" stroke-width="0.2272" stroke-miterlimit="10"/>
<path d="M1864.75 93.0783C1756.35 92.8744 1648.34 27.2758 1544.65 58.8221C1392.77 105.02 1322.7 338.83 1165.1 319.753C1075.41 308.902 1020.74 216.098 992.648 130.236C964.554 44.374 944.625 -51.9075 874.768 -109.173C781.805 -185.383 631.814 -164.651 547.34 -250.166C485.828 -312.443 480.708 -411.937 500.445 -497.212C520.181 -582.486 560.434 -662.209 577.197 -748.119C605.195 -891.642 565.842 -1042.25 596.118 -1185.31C632.797 -1358.6 779.035 -1503.54 952.647 -1538.66C1085.74 -1565.59 1222.81 -1532.33 1354.51 -1499.26C1453.53 -1474.39 1552.55 -1449.53 1651.62 -1424.65C1765.34 -1396.11 1882.99 -1345.69 1970.53 -1265.98C2017.26 -1223.44 2058.41 -1173.04 2078.53 -1112.07C2109.36 -1017.83 2074.35 -988.871 2142.44 -916.893C2193.7 -862.71 2240.88 -855.012 2255.91 -771.212C2277.12 -652.917 2198.89 -526.372 2172.92 -414.276C2127.48 -218.104 2150.57 93.6058 1864.75 93.0783Z" stroke="#6A728E" stroke-width="0.2236" stroke-miterlimit="10"/>
<path d="M1851.76 106.064C1743.37 105.86 1635.36 40.2619 1531.66 71.8081C1379.79 118.006 1309.72 351.816 1152.11 332.739C1062.42 321.888 1007.76 229.084 979.661 143.222C951.567 57.3598 931.651 -38.9215 861.782 -96.1868C768.818 -172.397 618.828 -151.666 534.354 -237.18C472.842 -299.457 467.722 -398.952 487.458 -484.226C507.195 -569.501 547.447 -649.224 564.21 -735.133C592.208 -878.656 552.855 -1029.27 583.132 -1172.32C619.811 -1345.62 766.048 -1490.55 939.661 -1525.67C1072.76 -1552.6 1209.82 -1519.34 1341.53 -1486.27C1440.54 -1461.4 1539.56 -1436.55 1638.63 -1411.67C1752.35 -1383.12 1870 -1332.7 1957.54 -1252.99C2004.27 -1210.45 2045.42 -1160.05 2065.54 -1099.08C2096.37 -1004.84 2061.36 -975.885 2129.45 -903.908C2180.71 -849.724 2227.91 -842.026 2242.92 -758.227C2264.13 -639.931 2185.91 -513.386 2159.93 -401.29C2114.49 -205.106 2137.58 106.592 1851.76 106.064Z" stroke="#6A728E" stroke-width="0.22" stroke-miterlimit="10"/>
<path d="M1838.77 119.061C1730.37 118.857 1622.36 53.2587 1518.66 84.8049C1366.79 131.003 1296.72 364.812 1139.11 345.736C1049.42 334.885 994.758 242.08 966.664 156.219C938.57 70.3567 918.642 -25.9247 848.785 -83.19C755.821 -159.4 605.831 -138.669 521.357 -224.183C459.845 -286.46 454.725 -385.955 474.461 -471.229C494.198 -556.504 534.45 -636.227 551.213 -722.136C579.211 -865.659 539.858 -1016.27 570.134 -1159.32C606.814 -1332.62 753.051 -1477.56 926.664 -1512.68C1059.76 -1539.61 1196.82 -1506.34 1328.53 -1473.28C1427.55 -1448.41 1526.57 -1423.55 1625.63 -1398.67C1739.35 -1370.12 1857 -1319.7 1944.55 -1239.99C1991.27 -1197.45 2032.43 -1147.06 2052.55 -1086.09C2083.37 -991.844 2048.36 -962.888 2116.46 -890.911C2167.72 -836.727 2214.91 -829.029 2229.92 -745.23C2251.14 -626.934 2172.91 -500.389 2146.94 -388.293C2101.49 -192.121 2124.6 119.576 1838.77 119.061Z" stroke="#6A728E" stroke-width="0.2164" stroke-miterlimit="10"/>
<path d="M1825.78 132.047C1717.38 131.843 1609.37 66.2442 1505.68 97.7905C1353.8 143.989 1283.73 377.798 1126.13 358.722C1036.44 347.87 981.772 255.066 953.678 169.204C925.584 83.3424 905.667 -12.9391 835.798 -70.2043C742.835 -146.414 592.844 -125.683 508.37 -211.197C446.858 -273.474 441.738 -372.969 461.475 -458.244C481.212 -543.518 521.464 -623.241 538.227 -709.151C566.225 -852.674 526.872 -1003.28 557.148 -1146.34C593.827 -1319.63 740.065 -1464.57 913.677 -1499.69C1046.77 -1526.62 1183.84 -1493.36 1315.54 -1460.29C1414.56 -1435.42 1513.58 -1410.57 1612.65 -1385.69C1726.37 -1357.14 1844.02 -1306.72 1931.56 -1227.01C1978.29 -1184.47 2019.44 -1134.07 2039.56 -1073.1C2070.39 -978.859 2035.38 -949.902 2103.47 -877.925C2154.73 -823.741 2201.93 -816.044 2216.94 -732.244C2238.15 -613.949 2159.92 -487.404 2133.95 -375.307C2088.51 -179.135 2111.61 132.574 1825.78 132.047Z" stroke="#6A728E" stroke-width="0.2129" stroke-miterlimit="10"/>
<path d="M1812.79 145.032C1704.4 144.828 1596.39 79.2299 1492.69 110.776C1340.82 156.974 1270.75 390.784 1113.14 371.707C1023.45 360.856 968.787 268.052 940.693 182.19C912.599 96.3279 892.67 0.0464901 822.813 -57.2188C729.85 -133.429 579.859 -112.698 495.385 -198.212C433.873 -260.489 428.753 -359.984 448.49 -445.258C468.226 -530.533 508.479 -610.255 525.242 -696.165C553.24 -839.688 513.886 -990.297 544.163 -1133.35C580.842 -1306.65 727.08 -1451.58 900.692 -1486.7C1033.79 -1513.63 1170.85 -1480.37 1302.56 -1447.3C1401.58 -1422.44 1500.59 -1397.58 1599.66 -1372.7C1713.38 -1344.15 1831.03 -1293.73 1918.58 -1214.02C1965.3 -1171.48 2006.45 -1121.09 2026.57 -1060.12C2057.4 -965.873 2022.39 -936.917 2090.48 -864.94C2141.74 -810.756 2188.94 -803.058 2203.95 -719.259C2225.16 -600.963 2146.94 -474.418 2120.96 -362.322C2075.52 -166.15 2098.61 145.56 1812.79 145.032Z" stroke="#6A728E" stroke-width="0.2093" stroke-miterlimit="10"/>
<path d="M1799.81 158.029C1691.41 157.825 1583.4 92.2271 1479.71 123.773C1327.83 169.972 1257.76 403.781 1100.16 384.704C1010.47 373.853 955.8 281.049 927.706 195.187C899.612 109.325 879.696 13.0437 809.826 -44.2216C716.863 -120.431 566.872 -99.7003 482.399 -185.215C420.887 -247.492 415.767 -346.986 435.503 -432.261C455.24 -517.535 495.492 -597.258 512.255 -683.168C540.253 -826.691 500.9 -977.3 531.176 -1120.36C567.856 -1293.65 714.093 -1438.59 887.705 -1473.71C1020.8 -1500.64 1157.87 -1467.38 1289.57 -1434.31C1388.59 -1409.44 1487.61 -1384.58 1586.67 -1359.7C1700.39 -1331.16 1818.05 -1280.74 1905.59 -1201.03C1952.32 -1158.48 1993.47 -1108.09 2013.59 -1047.12C2044.42 -952.876 2009.4 -923.92 2077.5 -851.942C2128.76 -797.759 2175.95 -790.061 2190.97 -706.261C2212.18 -587.966 2133.95 -461.421 2107.98 -349.325C2062.52 -153.153 2085.63 158.545 1799.81 158.029Z" stroke="#6A728E" stroke-width="0.2057" stroke-miterlimit="10"/>
<path d="M1786.81 171.015C1678.41 170.811 1570.4 105.212 1466.71 136.759C1314.84 182.957 1244.76 416.766 1087.16 397.69C997.467 386.839 942.802 294.034 914.708 208.172C886.614 122.311 866.686 26.0291 796.828 -31.2362C703.865 -107.446 553.874 -86.7148 469.401 -172.229C407.889 -234.506 402.769 -334.001 422.505 -419.275C442.242 -504.55 482.494 -584.273 499.257 -670.183C527.255 -813.706 487.902 -964.315 518.178 -1107.37C554.858 -1280.66 701.095 -1425.6 874.707 -1460.72C1007.8 -1487.65 1144.87 -1454.39 1276.57 -1421.32C1375.59 -1396.45 1474.61 -1371.6 1573.68 -1346.72C1687.4 -1318.17 1805.05 -1267.75 1892.59 -1188.04C1939.32 -1145.5 1980.47 -1095.1 2000.59 -1034.13C2031.42 -939.891 1996.41 -910.934 2064.5 -838.957C2115.76 -784.773 2162.96 -777.076 2177.97 -693.276C2199.18 -574.98 2120.95 -448.436 2094.98 -336.339C2049.54 -140.167 2072.64 171.542 1786.81 171.015Z" stroke="#6A728E" stroke-width="0.2021" stroke-miterlimit="10"/>
<path d="M1773.82 184C1665.43 183.796 1557.42 118.198 1453.72 149.744C1301.85 195.943 1231.78 429.752 1074.17 410.675C984.482 399.824 929.817 307.02 901.723 221.158C873.629 135.296 853.712 39.0146 783.843 -18.2506C690.88 -94.4604 540.889 -73.7294 456.415 -159.244C394.903 -221.521 389.783 -321.016 409.52 -406.29C429.256 -491.564 469.509 -571.287 486.272 -657.197C514.27 -800.72 474.917 -951.329 505.193 -1094.38C541.872 -1267.68 688.11 -1412.62 861.722 -1447.74C994.818 -1474.67 1131.88 -1441.41 1263.59 -1408.34C1362.61 -1383.47 1461.62 -1358.61 1560.69 -1333.73C1674.41 -1305.18 1792.06 -1254.77 1879.61 -1175.05C1926.33 -1132.51 1967.48 -1082.12 1987.61 -1021.15C2018.43 -926.905 1983.42 -897.949 2051.52 -825.971C2102.78 -771.788 2149.97 -764.09 2164.98 -680.29C2186.19 -561.995 2107.97 -435.45 2082 -323.354C2036.55 -127.182 2059.65 184.528 1773.82 184Z" stroke="#6A728E" stroke-width="0.1986" stroke-miterlimit="10"/>
<path d="M1760.84 196.986C1652.44 196.782 1544.43 131.184 1440.74 162.73C1288.86 208.928 1218.79 442.737 1061.19 423.661C971.496 412.81 916.831 320.006 888.737 234.144C860.643 148.282 840.714 52.0003 770.857 -5.26501C677.893 -81.4748 527.903 -60.7436 443.429 -146.258C381.917 -208.535 376.797 -308.03 396.534 -393.304C416.27 -478.579 456.523 -558.302 473.286 -644.212C501.284 -787.734 461.93 -938.344 492.207 -1081.4C528.886 -1254.69 675.124 -1399.63 848.736 -1434.75C981.832 -1461.68 1118.9 -1428.42 1250.6 -1395.35C1349.62 -1370.48 1448.64 -1345.63 1547.71 -1320.75C1661.42 -1292.2 1779.08 -1241.78 1866.62 -1162.07C1913.35 -1119.53 1954.5 -1069.13 1974.62 -1008.16C2005.45 -913.919 1970.43 -884.963 2038.53 -812.986C2089.79 -758.802 2136.98 -751.104 2152 -667.305C2173.21 -549.009 2094.98 -422.464 2069.01 -310.368C2023.56 -114.184 2046.66 197.514 1760.84 196.986Z" stroke="#6A728E" stroke-width="0.195" stroke-miterlimit="10"/>
<path d="M1747.84 209.983C1639.45 209.779 1531.43 144.18 1427.74 175.727C1275.87 221.925 1205.79 455.734 1048.19 436.658C958.499 425.807 903.833 333.002 875.739 247.14C847.645 161.279 827.729 64.9971 757.86 7.73183C664.896 -68.478 514.906 -47.7467 430.432 -133.261C368.92 -195.538 363.8 -295.033 383.536 -380.307C403.273 -465.582 443.526 -545.305 460.288 -631.215C488.287 -774.737 448.933 -925.347 479.21 -1068.4C515.889 -1241.7 662.127 -1386.63 835.739 -1421.75C968.835 -1448.68 1105.9 -1415.42 1237.6 -1382.35C1336.62 -1357.49 1435.64 -1332.63 1534.71 -1307.75C1648.43 -1279.2 1766.08 -1228.78 1853.62 -1149.07C1900.35 -1106.53 1941.5 -1056.14 1961.62 -995.166C1992.45 -900.922 1957.44 -871.966 2025.53 -799.989C2076.79 -745.805 2123.98 -738.107 2139 -654.308C2160.21 -536.012 2081.98 -409.468 2056.01 -297.371C2010.57 -101.199 2033.67 210.498 1747.84 209.983Z" stroke="#6A728E" stroke-width="0.1914" stroke-miterlimit="10"/>
<path d="M1734.85 222.969C1626.46 222.765 1518.45 157.166 1414.75 188.713C1262.88 234.911 1192.81 468.72 1035.2 449.644C945.512 438.792 890.847 345.988 862.753 260.126C834.659 174.264 814.743 77.9829 744.873 20.7176C651.91 -55.4922 501.919 -34.7611 417.445 -120.275C355.934 -182.553 350.814 -282.047 370.55 -367.322C390.287 -452.596 430.539 -532.319 447.302 -618.229C475.3 -761.752 435.947 -912.361 466.223 -1055.42C502.903 -1228.71 649.14 -1373.65 822.752 -1408.77C955.848 -1435.7 1092.91 -1402.44 1224.62 -1369.37C1323.64 -1344.5 1422.66 -1319.64 1521.72 -1294.76C1635.44 -1266.22 1753.09 -1215.8 1840.64 -1136.09C1887.36 -1093.55 1928.52 -1043.15 1948.64 -982.18C1979.46 -887.937 1944.45 -858.98 2012.55 -787.003C2063.81 -732.819 2111 -725.122 2126.01 -641.322C2147.22 -523.027 2069 -396.482 2043.03 -284.385C1997.58 -88.2135 2020.68 223.496 1734.85 222.969Z" stroke="#6A728E" stroke-width="0.1878" stroke-miterlimit="10"/>
<path d="M1721.87 235.954C1613.47 235.75 1505.46 170.151 1401.77 201.698C1249.89 247.896 1179.82 481.705 1022.22 462.629C932.527 451.778 877.862 358.973 849.768 273.111C821.674 187.249 801.745 90.968 731.888 33.7028C638.925 -42.507 488.934 -21.7758 404.46 -107.29C342.948 -169.567 337.828 -269.062 357.565 -354.336C377.301 -439.611 417.554 -519.334 434.317 -605.244C462.315 -748.766 422.962 -899.376 453.238 -1042.43C489.917 -1215.73 636.155 -1360.66 809.767 -1395.78C942.863 -1422.71 1079.93 -1389.45 1211.63 -1356.38C1310.65 -1331.51 1409.67 -1306.66 1508.74 -1281.78C1622.46 -1253.23 1740.11 -1202.81 1827.65 -1123.1C1874.38 -1080.56 1915.53 -1030.16 1935.65 -969.195C1966.48 -874.952 1931.47 -845.995 1999.56 -774.018C2050.82 -719.834 2098.02 -712.136 2113.03 -628.337C2134.24 -510.041 2056.01 -383.497 2030.04 -271.4C1984.6 -75.2282 2007.69 236.481 1721.87 235.954Z" stroke="#6A728E" stroke-width="0.1842" stroke-miterlimit="10"/>
<path d="M1708.88 248.951C1600.49 248.747 1492.48 183.149 1388.78 214.695C1236.91 260.893 1166.84 494.703 1009.23 475.626C919.541 464.775 864.876 371.971 836.782 286.109C808.687 200.247 788.771 103.965 718.902 46.7002C625.938 -29.5096 475.948 -8.77837 391.474 -94.2926C329.962 -156.57 324.842 -256.065 344.578 -341.339C364.315 -426.613 404.568 -506.336 421.33 -592.246C449.329 -735.769 409.975 -886.378 440.252 -1029.43C476.931 -1202.73 623.169 -1347.67 796.781 -1382.79C929.877 -1409.72 1066.94 -1376.45 1198.65 -1343.39C1297.66 -1318.52 1396.68 -1293.66 1495.75 -1268.78C1609.47 -1240.23 1727.12 -1189.81 1814.66 -1110.1C1861.39 -1067.56 1902.54 -1017.17 1922.66 -956.197C1953.49 -861.954 1918.48 -832.998 1986.57 -761.021C2037.83 -706.837 2085.03 -699.139 2100.04 -615.339C2121.25 -497.044 2043.03 -370.499 2017.05 -258.403C1971.6 -62.2308 1994.7 249.467 1708.88 248.951Z" stroke="#6A728E" stroke-width="0.1807" stroke-miterlimit="10"/>
<path d="M1695.89 261.937C1587.49 261.733 1479.48 196.135 1375.78 227.681C1223.91 273.879 1153.84 507.688 996.233 488.612C906.543 477.761 851.877 384.957 823.783 299.095C795.689 213.233 775.773 116.951 705.904 59.686C612.94 -16.5238 462.95 4.20725 378.476 -81.307C316.964 -143.584 311.844 -243.079 331.58 -328.353C351.317 -413.628 391.57 -493.351 408.332 -579.261C436.33 -722.783 396.977 -873.393 427.254 -1016.45C463.933 -1189.74 610.17 -1334.68 783.783 -1369.8C916.879 -1396.73 1053.94 -1363.47 1185.65 -1330.4C1284.67 -1305.53 1383.69 -1280.68 1482.75 -1255.8C1596.47 -1227.25 1714.12 -1176.83 1801.67 -1097.12C1848.39 -1054.58 1889.55 -1004.18 1909.67 -943.212C1940.49 -848.968 1905.48 -820.012 1973.58 -748.035C2024.84 -693.851 2072.03 -686.153 2087.04 -602.354C2108.25 -484.058 2030.03 -357.514 2004.06 -245.417C1958.61 -49.2451 1981.72 262.464 1695.89 261.937Z" stroke="#6A728E" stroke-width="0.1771" stroke-miterlimit="10"/>
<path d="M1682.9 274.922C1574.5 274.718 1466.49 209.12 1362.8 240.666C1210.92 286.864 1140.85 520.674 983.247 501.597C893.557 490.746 838.892 397.942 810.798 312.08C782.704 226.218 762.788 129.936 692.918 72.6712C599.955 -3.53865 449.964 17.1926 365.49 -68.3216C303.979 -130.599 298.859 -230.094 318.595 -315.368C338.332 -400.642 378.584 -480.365 395.347 -566.275C423.345 -709.798 383.992 -860.407 414.268 -1003.46C450.948 -1176.76 597.185 -1321.69 770.797 -1356.81C903.893 -1383.74 1040.96 -1350.48 1172.66 -1317.41C1271.68 -1292.55 1370.7 -1267.69 1469.77 -1242.81C1583.49 -1214.26 1701.14 -1163.84 1788.68 -1084.13C1835.41 -1041.59 1876.56 -991.197 1896.68 -930.226C1927.51 -835.983 1892.5 -807.027 1960.59 -735.05C2011.85 -680.866 2059.05 -673.168 2074.06 -589.368C2095.27 -471.073 2017.04 -344.528 1991.07 -232.432C1945.63 -36.2598 1968.72 275.45 1682.9 274.922Z" stroke="#6A728E" stroke-width="0.1735" stroke-miterlimit="10"/>
<path d="M1669.91 287.92C1561.52 287.716 1453.51 222.117 1349.81 253.663C1197.94 299.862 1127.87 533.671 970.261 514.595C880.571 503.743 825.906 410.939 797.812 325.077C769.718 239.215 749.789 142.934 679.932 85.6686C586.969 9.45877 436.978 30.19 352.504 -55.3242C290.992 -117.601 285.872 -217.096 305.609 -302.371C325.345 -387.645 365.598 -467.368 382.361 -553.278C410.359 -696.801 371.006 -847.41 401.282 -990.465C437.961 -1163.76 584.199 -1308.7 757.811 -1343.82C890.907 -1370.75 1027.97 -1337.49 1159.68 -1304.42C1258.7 -1279.55 1357.71 -1254.69 1456.78 -1229.81C1570.5 -1201.27 1688.15 -1150.85 1775.69 -1071.14C1822.42 -1028.59 1863.57 -978.199 1883.69 -917.229C1914.52 -822.986 1879.51 -794.029 1947.6 -722.052C1998.86 -667.868 2046.06 -660.171 2061.07 -576.371C2082.28 -458.076 2004.06 -331.531 1978.08 -219.434C1932.63 -23.2624 1955.73 288.435 1669.91 287.92Z" stroke="#6A728E" stroke-width="0.1699" stroke-miterlimit="10"/>
<path d="M1656.92 300.905C1548.52 300.701 1440.51 235.102 1336.81 266.649C1184.94 312.847 1114.87 546.656 957.264 527.58C867.574 516.728 812.909 423.924 784.815 338.062C756.721 252.2 736.804 155.919 666.935 98.6538C573.972 22.444 423.981 43.175 339.507 -42.3392C277.995 -104.616 272.875 -204.111 292.612 -289.385C312.348 -374.66 352.601 -454.383 369.364 -540.293C397.362 -683.816 358.009 -834.425 388.285 -977.48C424.964 -1150.77 571.202 -1295.71 744.814 -1330.83C877.91 -1357.76 1014.97 -1324.5 1146.68 -1291.43C1245.7 -1266.56 1344.72 -1241.71 1443.78 -1216.83C1557.5 -1188.28 1675.15 -1137.86 1762.7 -1058.15C1809.43 -1015.61 1850.58 -965.214 1870.7 -904.244C1901.52 -810.001 1866.51 -781.044 1934.61 -709.067C1985.87 -654.883 2033.06 -647.185 2048.07 -563.386C2069.29 -445.09 1991.06 -318.546 1965.09 -206.449C1919.64 -10.2773 1942.75 301.432 1656.92 300.905Z" stroke="#6A728E" stroke-width="0.1664" stroke-miterlimit="10"/>
<path d="M1643.93 313.89C1535.53 313.687 1427.52 248.088 1323.83 279.634C1171.96 325.833 1101.88 559.642 944.277 540.565C854.588 529.714 799.922 436.91 771.828 351.048C743.734 265.186 723.818 168.905 653.948 111.639C560.985 35.4296 410.995 56.1608 326.521 -29.3534C265.009 -91.6305 259.889 -191.125 279.625 -276.4C299.362 -361.674 339.614 -441.397 356.377 -527.307C384.375 -670.83 345.022 -821.439 375.298 -964.494C411.978 -1137.79 558.215 -1282.73 731.828 -1317.85C864.923 -1344.78 1001.99 -1311.52 1133.69 -1278.45C1232.71 -1253.58 1331.73 -1228.72 1430.8 -1203.84C1544.52 -1175.29 1662.17 -1124.88 1749.71 -1045.16C1796.44 -1002.62 1837.59 -952.228 1857.71 -891.258C1888.54 -797.015 1853.53 -768.059 1921.62 -696.081C1972.88 -641.898 2020.08 -634.2 2035.09 -550.4C2056.3 -432.105 1978.07 -305.56 1952.1 -193.464C1906.66 2.70833 1929.75 314.418 1643.93 313.89Z" stroke="#6A728E" stroke-width="0.1628" stroke-miterlimit="10"/>
<path d="M1630.94 326.876C1522.55 326.672 1414.54 261.074 1310.84 292.62C1158.97 338.818 1088.9 572.628 931.291 553.551C841.601 542.7 786.936 449.896 758.842 364.034C730.748 278.172 710.832 181.89 640.962 124.625C547.999 48.4154 398.008 69.1465 313.534 -16.3678C252.022 -78.6449 246.902 -178.14 266.639 -263.414C286.376 -348.689 326.628 -428.411 343.391 -514.321C371.389 -657.844 332.036 -808.453 362.312 -951.509C398.991 -1124.8 545.229 -1269.74 718.841 -1304.86C851.937 -1331.79 989.002 -1298.53 1120.71 -1265.46C1219.73 -1240.59 1318.74 -1215.74 1417.81 -1190.86C1531.53 -1162.31 1649.18 -1111.89 1736.72 -1032.18C1783.45 -989.638 1824.6 -939.243 1844.72 -878.272C1875.55 -784.029 1840.54 -755.073 1908.63 -683.096C1959.89 -628.912 2007.09 -621.214 2022.1 -537.415C2043.31 -419.119 1965.09 -292.574 1939.11 -180.478C1893.67 15.7061 1916.76 327.404 1630.94 326.876Z" stroke="#6A728E" stroke-width="0.1592" stroke-miterlimit="10"/>
<path d="M1617.95 339.873C1509.55 339.669 1401.54 274.071 1297.84 305.617C1145.97 351.815 1075.9 585.624 918.294 566.548C828.604 555.697 773.939 462.893 745.845 377.031C717.751 291.169 697.834 194.887 627.965 137.622C535.002 61.4124 385.011 82.1434 300.537 -3.37079C239.025 -65.648 233.905 -165.143 253.642 -250.417C273.379 -335.692 313.631 -415.414 330.394 -501.324C358.392 -644.847 319.039 -795.456 349.315 -938.512C385.994 -1111.81 532.232 -1256.74 705.844 -1291.86C838.94 -1318.79 976.005 -1285.53 1107.71 -1252.46C1206.73 -1227.6 1305.75 -1202.74 1404.81 -1177.86C1518.53 -1149.31 1636.18 -1098.89 1723.73 -1019.18C1770.46 -976.64 1811.61 -926.246 1831.73 -865.275C1862.56 -771.032 1827.54 -742.076 1895.64 -670.099C1946.9 -615.915 1994.09 -608.217 2009.1 -524.418C2030.32 -406.122 1952.09 -279.577 1926.12 -167.481C1880.67 28.6911 1903.78 340.389 1617.95 339.873Z" stroke="#6A728E" stroke-width="0.1556" stroke-miterlimit="10"/>
<path d="M1604.96 352.859C1496.57 352.655 1388.55 287.056 1284.86 318.603C1132.99 364.801 1062.91 598.61 905.308 579.534C815.618 568.683 760.953 475.878 732.859 390.016C704.765 304.155 684.848 207.873 614.979 150.608C522.015 74.398 372.025 95.1292 287.551 9.615C226.039 -52.6622 220.919 -152.157 240.656 -237.431C260.392 -322.706 300.645 -402.429 317.408 -488.339C345.406 -631.862 306.052 -782.471 336.329 -925.526C373.008 -1098.82 519.246 -1243.76 692.858 -1278.88C825.954 -1305.81 963.018 -1272.55 1094.72 -1239.48C1193.74 -1214.61 1292.76 -1189.75 1391.83 -1164.87C1505.55 -1136.33 1623.2 -1085.91 1710.74 -1006.2C1757.47 -963.655 1798.62 -913.26 1818.74 -852.29C1849.57 -758.047 1814.56 -729.09 1882.65 -657.113C1933.91 -602.929 1981.11 -595.232 1996.12 -511.432C2017.33 -393.136 1939.1 -266.592 1913.13 -154.495C1867.69 41.6767 1890.79 353.386 1604.96 352.859Z" stroke="#6A728E" stroke-width="0.152" stroke-miterlimit="10"/>
<path d="M1591.97 365.843C1483.58 365.64 1375.57 300.041 1271.87 331.587C1120 377.786 1049.93 611.595 892.321 592.518C802.631 581.667 747.966 488.863 719.872 403.001C691.778 317.139 671.862 220.858 601.992 163.593C509.029 87.3829 359.039 108.114 274.565 22.5997C213.053 -39.6775 207.933 -139.172 227.669 -224.447C247.406 -309.721 287.658 -389.444 304.421 -475.354C332.419 -618.877 293.066 -769.486 323.342 -912.541C360.022 -1085.84 506.259 -1230.77 679.872 -1265.89C812.967 -1292.82 950.032 -1259.57 1081.74 -1226.49C1180.76 -1201.63 1279.77 -1176.77 1378.84 -1151.89C1492.56 -1123.34 1610.21 -1072.92 1697.76 -993.211C1744.48 -950.67 1785.63 -900.275 1805.75 -839.305C1836.58 -745.062 1801.57 -716.105 1869.66 -644.128C1920.92 -589.944 1968.12 -582.247 1983.13 -498.447C2004.34 -380.152 1926.12 -253.607 1900.14 -141.51C1854.7 54.6616 1877.79 366.371 1591.97 365.843Z" stroke="#6A728E" stroke-width="0.1485" stroke-miterlimit="10"/>
<path d="M1578.99 378.841C1470.59 378.637 1362.58 313.039 1258.89 344.585C1107.01 390.784 1036.94 624.593 879.336 605.516C789.646 594.665 734.981 501.861 706.887 415.999C678.793 330.137 658.877 233.856 589.007 176.59C496.044 100.381 346.053 121.112 261.579 35.5975C200.067 -26.6797 194.947 -126.174 214.684 -211.449C234.42 -296.723 274.673 -376.446 291.436 -462.356C319.434 -605.879 280.081 -756.488 310.357 -899.543C347.036 -1072.84 493.274 -1217.78 666.886 -1252.89C799.982 -1279.82 937.047 -1246.56 1068.75 -1213.5C1167.77 -1188.63 1266.79 -1163.77 1365.86 -1138.89C1479.57 -1110.34 1597.23 -1059.92 1684.77 -980.214C1731.5 -937.672 1772.65 -887.277 1792.77 -826.307C1823.6 -732.064 1788.58 -703.108 1856.68 -631.13C1907.94 -576.947 1955.13 -569.249 1970.15 -485.449C1991.36 -367.154 1913.13 -240.609 1887.16 -128.513C1841.7 67.6593 1864.81 379.357 1578.99 378.841Z" stroke="#6A728E" stroke-width="0.1449" stroke-miterlimit="10"/>
<path d="M1565.99 391.827C1457.6 391.623 1349.58 326.024 1245.89 357.57C1094.02 403.769 1023.94 637.578 866.338 618.502C776.648 607.65 721.983 514.846 693.889 428.984C665.795 343.122 645.878 246.841 576.009 189.576C483.046 113.366 333.055 134.097 248.581 48.5828C187.069 -13.6944 181.949 -113.189 201.686 -198.464C221.422 -283.738 261.675 -363.461 278.438 -449.371C306.436 -592.894 267.083 -743.503 297.359 -886.558C334.038 -1059.85 480.276 -1204.79 653.888 -1239.91C786.984 -1266.84 924.049 -1233.58 1055.75 -1200.51C1154.77 -1175.64 1253.79 -1150.79 1352.86 -1125.91C1466.58 -1097.36 1584.23 -1046.94 1671.77 -967.228C1718.5 -924.687 1759.65 -874.292 1779.77 -813.322C1810.6 -719.079 1775.59 -690.122 1843.68 -618.145C1894.94 -563.961 1942.14 -556.264 1957.15 -472.464C1978.36 -354.169 1900.13 -227.624 1874.16 -115.527C1828.72 80.6445 1851.82 392.354 1565.99 391.827Z" stroke="#6A728E" stroke-width="0.1413" stroke-miterlimit="10"/>
<path d="M1553.01 404.812C1444.61 404.608 1336.6 339.01 1232.9 370.556C1081.03 416.755 1010.96 650.564 853.353 631.487C763.663 620.636 708.998 527.832 680.903 441.97C652.809 356.108 632.893 259.827 563.024 202.561C470.06 126.352 320.07 147.083 235.596 61.5684C174.084 -0.708753 168.964 -100.204 188.701 -185.478C208.437 -270.752 248.69 -350.475 265.452 -436.385C293.451 -579.908 254.097 -730.517 284.374 -873.572C321.053 -1046.87 467.291 -1191.8 640.903 -1226.92C773.999 -1253.85 911.063 -1220.59 1042.77 -1187.52C1141.79 -1162.66 1240.81 -1137.8 1339.87 -1112.92C1453.59 -1084.37 1571.24 -1033.95 1658.79 -954.243C1705.51 -911.701 1746.67 -861.306 1766.79 -800.336C1797.61 -706.093 1762.6 -677.137 1830.7 -605.159C1881.96 -550.976 1929.15 -543.278 1944.16 -459.478C1965.37 -341.183 1887.15 -214.638 1861.18 -102.542C1815.73 93.6303 1838.83 405.34 1553.01 404.812Z" stroke="#6A728E" stroke-width="0.1377" stroke-miterlimit="10"/>
<path d="M1540.02 417.798C1431.62 417.594 1323.61 351.995 1219.92 383.542C1068.04 429.74 997.971 663.549 840.366 644.473C750.676 633.622 696.011 540.817 667.917 454.955C639.823 369.093 619.907 272.812 550.037 215.547C457.074 139.337 307.083 160.068 222.61 74.554C161.098 12.2768 155.978 -87.218 175.714 -172.492C195.451 -257.767 235.703 -337.49 252.466 -423.4C280.464 -566.922 241.111 -717.532 271.387 -860.587C308.067 -1033.88 454.304 -1178.82 627.917 -1213.94C761.012 -1240.87 898.077 -1207.61 1029.78 -1174.54C1128.8 -1149.67 1227.82 -1124.82 1326.89 -1099.94C1440.6 -1071.39 1558.26 -1020.97 1645.8 -941.257C1692.53 -898.716 1733.68 -848.321 1753.8 -787.351C1784.63 -693.107 1749.62 -664.151 1817.71 -592.174C1868.97 -537.99 1916.16 -530.292 1931.18 -446.493C1952.39 -328.197 1874.16 -201.653 1848.19 -89.5562C1802.75 106.628 1825.84 418.325 1540.02 417.798Z" stroke="#6A728E" stroke-width="0.1342" stroke-miterlimit="10"/>
<path d="M1527.02 430.795C1418.63 430.591 1310.61 364.992 1206.92 396.539C1055.05 442.737 984.973 676.546 827.368 657.47C737.678 646.619 683.013 553.814 654.919 467.952C626.825 382.091 606.909 285.809 537.039 228.544C444.076 152.334 294.085 173.065 209.611 87.5511C148.1 25.2739 142.98 -74.2209 162.716 -159.495C182.453 -244.77 222.705 -324.493 239.468 -410.403C267.466 -553.925 228.113 -704.535 258.389 -847.59C295.069 -1020.88 441.306 -1165.82 614.918 -1200.94C748.014 -1227.87 885.079 -1194.61 1016.78 -1161.54C1115.8 -1136.67 1214.82 -1111.82 1313.89 -1086.94C1427.61 -1058.39 1545.26 -1007.97 1632.8 -928.26C1679.53 -885.719 1720.68 -835.324 1740.8 -774.354C1771.63 -680.11 1736.62 -651.154 1804.71 -579.177C1855.97 -524.993 1903.17 -517.295 1918.18 -433.496C1939.39 -315.2 1861.16 -188.656 1835.19 -76.5591C1789.75 119.613 1812.85 431.31 1527.02 430.795Z" stroke="#6A728E" stroke-width="0.1306" stroke-miterlimit="10"/>
<path d="M1514.04 443.78C1405.64 443.576 1297.63 377.978 1193.93 409.524C1042.06 455.722 971.988 689.532 814.383 670.455C724.693 659.604 670.028 566.8 641.934 480.938C613.84 395.076 593.923 298.795 524.054 241.529C431.091 165.319 281.1 186.051 196.626 100.536C135.114 38.2592 129.994 -61.2357 149.731 -146.51C169.467 -231.784 209.72 -311.507 226.483 -397.417C254.481 -540.94 215.128 -691.549 245.404 -834.604C282.083 -1007.9 428.321 -1152.84 601.933 -1187.96C735.029 -1214.89 872.094 -1181.63 1003.8 -1148.56C1102.82 -1123.69 1201.84 -1098.83 1300.9 -1073.95C1414.62 -1045.4 1532.27 -994.986 1619.82 -915.275C1666.54 -872.733 1707.7 -822.338 1727.82 -761.368C1758.64 -667.125 1723.63 -638.169 1791.73 -566.191C1842.99 -512.008 1890.18 -504.31 1905.19 -420.51C1926.4 -302.215 1848.18 -175.67 1822.21 -63.5737C1776.76 132.598 1799.86 444.308 1514.04 443.78Z" stroke="#6A728E" stroke-width="0.127" stroke-miterlimit="10"/>
<path d="M1501.05 456.766C1392.65 456.562 1284.64 390.964 1180.95 422.51C1029.07 468.708 959.001 702.517 801.397 683.441C711.707 672.59 657.041 579.786 628.947 493.924C600.853 408.062 580.937 311.78 511.068 254.515C418.104 178.305 268.114 199.036 183.64 113.522C122.128 51.2451 117.008 -48.2498 136.744 -133.524C156.481 -218.799 196.734 -298.522 213.496 -384.431C241.495 -527.954 202.141 -678.563 232.418 -821.619C269.097 -994.913 415.335 -1139.85 588.947 -1174.97C722.043 -1201.9 859.107 -1168.64 990.812 -1135.57C1089.83 -1110.7 1188.85 -1085.85 1287.92 -1060.97C1401.64 -1032.42 1519.29 -982 1606.83 -902.289C1653.56 -859.748 1694.71 -809.353 1714.83 -748.382C1745.66 -654.139 1710.65 -625.183 1778.74 -553.206C1830 -499.022 1877.2 -491.324 1892.21 -407.525C1913.42 -289.229 1835.19 -162.685 1809.22 -50.588C1763.78 145.584 1786.87 457.294 1501.05 456.766Z" stroke="#6A728E" stroke-width="0.1234" stroke-miterlimit="10"/>
<path d="M1488.06 469.763C1379.67 469.559 1271.66 403.961 1167.96 435.507C1016.09 481.705 946.016 715.515 788.411 696.438C698.721 685.587 644.056 592.783 615.962 506.921C587.868 421.059 567.952 324.778 498.082 267.512C405.119 191.303 255.128 212.034 170.654 126.52C109.143 64.2424 104.023 -35.2525 123.759 -120.527C143.496 -205.801 183.748 -285.524 200.511 -371.434C228.509 -514.957 189.156 -665.566 219.432 -808.621C256.112 -981.916 402.349 -1126.85 575.961 -1161.97C709.057 -1188.9 846.122 -1155.64 977.827 -1122.57C1076.85 -1097.71 1175.86 -1072.85 1274.93 -1047.97C1388.65 -1019.42 1506.3 -969.003 1593.85 -889.292C1640.57 -846.75 1681.72 -796.355 1701.84 -735.385C1732.67 -641.142 1697.66 -612.186 1765.75 -540.208C1817.01 -486.025 1864.21 -478.327 1879.22 -394.527C1900.43 -276.232 1822.21 -149.687 1796.23 -37.5907C1750.78 158.581 1773.88 470.279 1488.06 469.763Z" stroke="#6A728E" stroke-width="0.1198" stroke-miterlimit="10"/>
<path d="M1475.07 482.749C1366.67 482.545 1258.66 416.946 1154.96 448.493C1003.09 494.691 933.018 728.5 775.413 709.424C685.723 698.573 631.058 605.768 602.964 519.906C574.87 434.044 554.954 337.763 485.084 280.498C392.121 204.288 242.13 225.019 157.656 139.505C96.1445 77.2276 91.0245 -22.2672 110.761 -107.542C130.498 -192.816 170.75 -272.539 187.513 -358.449C215.511 -501.972 176.158 -652.581 206.434 -795.636C243.102 -968.919 389.339 -1113.86 562.963 -1148.99C696.059 -1175.92 833.124 -1142.66 964.829 -1109.59C1063.85 -1084.72 1162.87 -1059.86 1261.93 -1034.98C1375.65 -1006.44 1493.3 -956.017 1580.85 -876.306C1627.57 -833.765 1668.73 -783.37 1688.85 -722.4C1719.67 -628.157 1684.66 -599.2 1752.76 -527.223C1804.02 -473.039 1851.21 -465.342 1866.22 -381.542C1887.43 -263.247 1809.21 -136.702 1783.24 -24.6052C1737.79 171.567 1760.9 483.276 1475.07 482.749Z" stroke="#6A728E" stroke-width="0.1163" stroke-miterlimit="10"/>
<path d="M1462.08 495.734C1353.69 495.531 1245.67 429.932 1141.98 461.478C990.106 507.677 920.033 741.486 762.428 722.409C672.738 711.558 618.073 618.754 589.979 532.892C561.885 447.03 541.968 350.749 472.099 293.483C379.136 217.274 229.145 238.005 144.671 152.491C83.1592 90.2134 78.0392 -9.28145 97.7757 -94.5559C117.512 -179.83 157.765 -259.553 174.528 -345.463C202.526 -488.986 163.173 -639.595 193.449 -782.65C230.128 -955.945 376.366 -1100.88 549.978 -1136C683.074 -1162.93 820.139 -1129.67 951.844 -1096.6C1050.86 -1071.73 1149.88 -1046.88 1248.95 -1022C1362.67 -993.45 1480.32 -943.032 1567.86 -863.321C1614.59 -820.779 1655.74 -770.384 1675.86 -709.414C1706.69 -615.171 1671.68 -586.215 1739.77 -514.237C1791.03 -460.054 1838.21 -452.356 1853.24 -368.556C1874.45 -250.261 1796.22 -123.716 1770.25 -11.6196C1724.81 184.552 1747.9 496.262 1462.08 495.734Z" stroke="#6A728E" stroke-width="0.1127" stroke-miterlimit="10"/>
<path d="M1449.09 508.731C1340.7 508.527 1232.69 442.929 1128.99 474.475C977.119 520.673 907.046 754.483 749.441 735.406C659.752 724.555 605.086 631.751 576.992 545.889C548.898 460.027 528.982 363.746 459.113 306.48C366.149 230.271 216.159 251.002 131.685 165.488C70.1728 103.21 65.0528 3.71559 84.7894 -81.5588C104.526 -166.833 144.778 -246.556 161.541 -332.466C189.539 -475.989 150.186 -626.598 180.463 -769.653C217.142 -942.948 363.38 -1087.89 536.992 -1123C670.088 -1149.93 807.152 -1116.67 938.857 -1083.6C1037.88 -1058.74 1136.89 -1033.88 1235.96 -1009C1349.68 -980.453 1467.33 -930.034 1554.88 -850.323C1601.6 -807.782 1642.75 -757.387 1662.87 -696.417C1693.7 -602.174 1658.69 -573.218 1726.78 -501.24C1778.04 -447.057 1825.24 -439.359 1840.25 -355.559C1861.46 -237.264 1783.24 -110.719 1757.26 1.3774C1711.81 197.549 1734.91 509.247 1449.09 508.731Z" stroke="#6A728E" stroke-width="0.1091" stroke-miterlimit="10"/>
<path d="M1436.1 521.717C1327.7 521.513 1219.69 455.914 1115.99 487.461C964.121 533.659 894.048 767.468 736.443 748.392C646.754 737.541 592.088 644.736 563.994 558.874C535.9 473.012 515.984 376.731 446.115 319.466C353.151 243.256 203.161 263.987 118.687 178.473C57.1748 116.196 52.0548 16.7008 71.7914 -68.5735C91.5279 -153.848 131.78 -233.571 148.543 -319.481C176.541 -463.004 137.188 -613.613 167.465 -756.668C204.144 -929.962 350.381 -1074.9 523.994 -1110.02C657.089 -1136.95 794.154 -1103.69 925.859 -1070.62C1024.88 -1045.75 1123.9 -1020.9 1222.96 -996.017C1336.68 -967.468 1454.33 -917.049 1541.88 -837.338C1588.6 -794.797 1629.76 -744.402 1649.88 -683.432C1680.7 -589.189 1645.69 -560.232 1713.79 -488.255C1765.05 -434.071 1812.24 -426.373 1827.25 -342.574C1848.47 -224.278 1770.24 -97.7337 1744.27 14.3628C1698.82 210.535 1721.93 522.244 1436.1 521.717Z" stroke="#6A728E" stroke-width="0.1055" stroke-miterlimit="10"/>
<path d="M1423.11 534.702C1314.72 534.498 1206.7 468.9 1103.01 500.446C951.136 546.644 881.063 780.454 723.458 761.377C633.768 750.526 579.103 657.722 551.009 571.86C522.915 485.998 502.999 389.717 433.129 332.451C340.166 256.241 190.175 276.973 105.701 191.459C44.1894 129.181 39.0694 29.6865 58.806 -55.5879C78.5426 -140.862 118.795 -220.585 135.558 -306.495C163.556 -450.018 124.203 -600.627 154.479 -743.682C191.158 -916.977 337.396 -1061.91 511.008 -1097.03C644.104 -1123.96 781.169 -1090.7 912.874 -1057.63C1011.89 -1032.77 1110.91 -1007.91 1209.98 -983.031C1323.7 -954.482 1441.35 -904.064 1528.89 -824.353C1575.62 -781.811 1616.77 -731.416 1636.89 -670.446C1667.72 -576.203 1632.71 -547.247 1700.8 -475.269C1752.06 -421.086 1799.26 -413.388 1814.27 -329.588C1835.48 -211.293 1757.25 -84.7482 1731.28 27.3483C1685.84 223.52 1708.93 535.23 1423.11 534.702Z" stroke="#6A728E" stroke-width="0.102" stroke-miterlimit="10"/>
<path d="M1410.12 547.687C1301.73 547.483 1193.72 481.885 1090.02 513.431C938.15 559.629 868.076 793.438 710.472 774.362C620.782 763.511 566.117 670.706 538.023 584.845C509.929 498.983 490.012 402.701 420.143 345.436C327.18 269.226 177.189 289.957 92.715 204.443C31.2031 142.166 26.0831 42.6711 45.8197 -42.6033C65.5562 -127.878 105.809 -207.601 122.572 -293.51C150.57 -437.033 111.217 -587.642 141.493 -730.698C178.172 -903.992 324.41 -1048.93 498.022 -1084.05C631.118 -1110.98 768.183 -1077.72 899.888 -1044.65C998.906 -1019.78 1097.92 -994.926 1196.99 -970.046C1310.71 -941.498 1428.36 -891.079 1515.91 -811.368C1562.63 -768.827 1603.78 -718.432 1623.91 -657.462C1654.73 -563.218 1619.72 -534.262 1687.82 -462.285C1739.07 -408.101 1786.27 -400.403 1801.28 -316.604C1822.49 -198.308 1744.27 -71.7634 1718.3 40.3331C1672.85 236.517 1695.94 548.214 1410.12 547.687Z" stroke="#6A728E" stroke-width="0.0984" stroke-miterlimit="10"/>
<path d="M1397.13 560.685C1288.73 560.482 1180.72 494.883 1077.03 526.429C925.152 572.628 855.079 806.437 697.475 787.361C607.785 776.509 553.12 683.705 525.026 597.843C496.931 511.981 477.015 415.7 407.146 358.435C314.183 282.225 164.192 302.956 79.7179 217.442C18.206 155.164 13.086 55.6695 32.8226 -29.605C52.5592 -114.879 92.8117 -194.602 109.575 -280.512C137.573 -424.035 98.2194 -574.644 128.496 -717.699C165.163 -890.994 311.401 -1035.93 485.025 -1071.05C618.121 -1097.98 755.185 -1064.72 886.89 -1031.65C985.909 -1006.78 1084.93 -981.928 1183.99 -957.048C1297.71 -928.499 1415.36 -878.081 1502.91 -798.37C1549.64 -755.828 1590.79 -705.433 1610.91 -644.463C1641.74 -550.22 1606.72 -521.264 1674.82 -449.286C1726.08 -395.103 1773.27 -387.405 1788.29 -303.605C1809.5 -185.31 1731.27 -58.7651 1705.3 53.3315C1659.85 249.503 1682.96 561.201 1397.13 560.685Z" stroke="#6A728E" stroke-width="0.0948" stroke-miterlimit="10"/>
<path d="M1384.14 573.671C1275.75 573.467 1167.73 507.868 1064.04 539.415C912.166 585.613 842.093 819.422 684.488 800.346C594.798 789.495 540.133 696.69 512.039 610.828C483.945 524.967 464.029 428.685 394.159 371.42C301.196 295.21 151.206 315.941 66.7316 230.427C5.21971 168.15 0.0997196 68.6549 19.8363 -16.6195C39.5728 -101.894 79.8253 -181.617 96.5882 -267.527C124.586 -411.05 85.2331 -561.659 115.509 -704.714C152.189 -878.009 298.426 -1022.95 472.039 -1058.07C605.134 -1085 742.199 -1051.74 873.904 -1018.67C972.923 -993.798 1071.94 -968.943 1171.01 -944.063C1284.73 -915.514 1402.38 -865.095 1489.92 -785.384C1536.65 -742.843 1577.8 -692.448 1597.92 -631.478C1628.75 -537.235 1593.74 -508.278 1661.83 -436.301C1713.09 -382.117 1760.29 -374.42 1775.3 -290.62C1796.51 -172.325 1718.28 -45.7798 1692.31 66.3167C1646.87 262.489 1669.97 574.198 1384.14 573.671Z" stroke="#6A728E" stroke-width="0.0912" stroke-miterlimit="10"/>
</g>
<defs>
<clipPath id="clip0">
<rect width="890" height="680" fill="white"/>
</clipPath>
</defs>
</svg>
